<?xml version="1.0" encoding="UTF-8"?>
<svg xmlns="http://www.w3.org/2000/svg" version="1.1" width="200" height="200" viewBox="0 0 200 200"><rect x="0" y="0" width="200" height="200" fill="#ffffff"/><g transform="scale(6.897)"><g transform="translate(0,0)"><path fill-rule="evenodd" d="M9 0L9 1L8 1L8 2L9 2L9 3L8 3L8 4L10 4L10 7L11 7L11 4L12 4L12 5L13 5L13 6L12 6L12 9L13 9L13 8L14 8L14 9L18 9L18 11L19 11L19 10L21 10L21 11L22 11L22 12L21 12L21 14L20 14L20 13L18 13L18 12L15 12L15 11L17 11L17 10L15 10L15 11L14 11L14 12L15 12L15 13L12 13L12 11L13 11L13 10L11 10L11 11L10 11L10 9L11 9L11 8L6 8L6 9L9 9L9 10L5 10L5 8L0 8L0 10L1 10L1 11L9 11L9 13L10 13L10 14L9 14L9 15L10 15L10 16L11 16L11 13L12 13L12 14L13 14L13 15L12 15L12 17L13 17L13 16L14 16L14 17L18 17L18 18L15 18L15 19L14 19L14 20L15 20L15 21L12 21L12 19L13 19L13 18L11 18L11 17L9 17L9 16L8 16L8 15L7 15L7 14L8 14L8 13L7 13L7 12L1 12L1 13L0 13L0 15L2 15L2 16L5 16L5 17L7 17L7 18L4 18L4 19L7 19L7 20L4 20L4 21L8 21L8 23L10 23L10 26L9 26L9 24L8 24L8 29L10 29L10 27L11 27L11 29L12 29L12 27L13 27L13 26L11 26L11 23L10 23L10 22L9 22L9 21L8 21L8 19L9 19L9 20L10 20L10 21L12 21L12 22L13 22L13 23L12 23L12 25L13 25L13 24L14 24L14 25L15 25L15 24L16 24L16 22L17 22L17 21L18 21L18 20L15 20L15 19L18 19L18 18L21 18L21 19L20 19L20 22L19 22L19 23L18 23L18 24L17 24L17 25L16 25L16 26L15 26L15 27L14 27L14 28L15 28L15 29L18 29L18 28L19 28L19 29L20 29L20 28L21 28L21 27L22 27L22 29L23 29L23 28L24 28L24 29L25 29L25 28L26 28L26 27L25 27L25 26L21 26L21 25L25 25L25 21L27 21L27 22L26 22L26 23L27 23L27 22L28 22L28 20L29 20L29 19L28 19L28 20L22 20L22 19L27 19L27 18L28 18L28 16L25 16L25 15L23 15L23 18L22 18L22 17L18 17L18 16L19 16L19 15L18 15L18 16L17 16L17 15L16 15L16 14L15 14L15 13L18 13L18 14L20 14L20 15L21 15L21 16L22 16L22 14L26 14L26 13L27 13L27 14L28 14L28 13L29 13L29 12L28 12L28 10L29 10L29 9L28 9L28 8L27 8L27 9L26 9L26 8L25 8L25 9L24 9L24 8L23 8L23 9L22 9L22 8L21 8L21 9L18 9L18 8L17 8L17 6L18 6L18 7L19 7L19 5L20 5L20 7L21 7L21 3L20 3L20 2L21 2L21 0L18 0L18 1L17 1L17 0L15 0L15 1L17 1L17 2L16 2L16 3L17 3L17 4L18 4L18 3L20 3L20 4L19 4L19 5L16 5L16 4L12 4L12 2L13 2L13 1L11 1L11 2L10 2L10 0ZM18 1L18 2L17 2L17 3L18 3L18 2L20 2L20 1ZM14 2L14 3L15 3L15 2ZM10 3L10 4L11 4L11 3ZM8 5L8 7L9 7L9 5ZM13 6L13 7L14 7L14 8L15 8L15 7L16 7L16 6L15 6L15 7L14 7L14 6ZM2 9L2 10L3 10L3 9ZM22 10L22 11L23 11L23 12L22 12L22 13L25 13L25 12L27 12L27 13L28 13L28 12L27 12L27 10L26 10L26 11L23 11L23 10ZM10 12L10 13L11 13L11 12ZM1 13L1 14L2 14L2 13ZM3 13L3 14L4 14L4 15L6 15L6 16L7 16L7 15L6 15L6 14L7 14L7 13ZM14 15L14 16L15 16L15 15ZM0 16L0 21L1 21L1 16ZM24 16L24 17L25 17L25 18L27 18L27 17L25 17L25 16ZM8 17L8 18L7 18L7 19L8 19L8 18L9 18L9 17ZM2 18L2 20L3 20L3 18ZM10 18L10 19L11 19L11 18ZM15 21L15 22L16 22L16 21ZM21 21L21 24L24 24L24 21ZM22 22L22 23L23 23L23 22ZM14 23L14 24L15 24L15 23ZM28 23L28 24L26 24L26 25L27 25L27 28L28 28L28 26L29 26L29 25L28 25L28 24L29 24L29 23ZM18 24L18 25L17 25L17 27L15 27L15 28L18 28L18 27L19 27L19 28L20 28L20 27L19 27L19 26L20 26L20 24ZM24 27L24 28L25 28L25 27ZM0 0L0 7L7 7L7 0ZM1 1L1 6L6 6L6 1ZM2 2L2 5L5 5L5 2ZM22 0L22 7L29 7L29 0ZM23 1L23 6L28 6L28 1ZM24 2L24 5L27 5L27 2ZM0 22L0 29L7 29L7 22ZM1 23L1 28L6 28L6 23ZM2 24L2 27L5 27L5 24Z" fill="#000000"/></g></g></svg>
