<?xml version="1.0" encoding="UTF-8"?>
<svg xmlns="http://www.w3.org/2000/svg" version="1.1" width="200" height="200" viewBox="0 0 200 200"><rect x="0" y="0" width="200" height="200" fill="#ffffff"/><g transform="scale(6.897)"><g transform="translate(0,0)"><path fill-rule="evenodd" d="M9 0L9 1L8 1L8 2L9 2L9 3L8 3L8 4L10 4L10 7L11 7L11 4L12 4L12 5L13 5L13 6L12 6L12 9L13 9L13 8L14 8L14 9L18 9L18 8L14 8L14 7L15 7L15 6L16 6L16 7L17 7L17 5L16 5L16 4L12 4L12 2L13 2L13 1L11 1L11 2L10 2L10 0ZM15 0L15 1L17 1L17 0ZM18 0L18 1L20 1L20 2L18 2L18 3L17 3L17 2L16 2L16 3L17 3L17 4L18 4L18 7L19 7L19 5L20 5L20 7L21 7L21 3L20 3L20 2L21 2L21 0ZM14 2L14 3L15 3L15 2ZM10 3L10 4L11 4L11 3ZM18 3L18 4L20 4L20 3ZM8 5L8 7L9 7L9 5ZM13 6L13 7L14 7L14 6ZM0 8L0 9L1 9L1 11L0 11L0 16L1 16L1 17L0 17L0 21L1 21L1 18L2 18L2 17L3 17L3 18L5 18L5 19L7 19L7 20L4 20L4 21L7 21L7 20L9 20L9 21L8 21L8 23L10 23L10 21L12 21L12 22L13 22L13 23L12 23L12 25L13 25L13 24L14 24L14 25L18 25L18 24L17 24L17 23L18 23L18 22L19 22L19 24L20 24L20 26L15 26L15 27L14 27L14 28L15 28L15 29L16 29L16 28L17 28L17 29L18 29L18 28L17 28L17 27L20 27L20 28L19 28L19 29L20 29L20 28L21 28L21 27L22 27L22 29L23 29L23 28L24 28L24 29L25 29L25 28L26 28L26 27L25 27L25 26L21 26L21 25L25 25L25 21L27 21L27 22L26 22L26 23L27 23L27 22L28 22L28 20L29 20L29 19L28 19L28 20L22 20L22 19L26 19L26 18L25 18L25 17L27 17L27 18L28 18L28 16L25 16L25 15L26 15L26 13L27 13L27 14L28 14L28 13L29 13L29 12L28 12L28 10L29 10L29 9L28 9L28 8L27 8L27 9L26 9L26 8L25 8L25 9L24 9L24 8L23 8L23 9L22 9L22 8L21 8L21 9L19 9L19 10L17 10L17 11L16 11L16 10L15 10L15 11L14 11L14 12L15 12L15 13L12 13L12 11L13 11L13 10L11 10L11 11L10 11L10 9L11 9L11 8L6 8L6 9L7 9L7 10L6 10L6 11L7 11L7 12L6 12L6 13L5 13L5 12L1 12L1 11L3 11L3 10L2 10L2 9L4 9L4 10L5 10L5 8ZM8 9L8 10L7 10L7 11L9 11L9 9ZM19 10L19 11L17 11L17 12L16 12L16 11L15 11L15 12L16 12L16 13L15 13L15 14L16 14L16 13L17 13L17 15L14 15L14 16L13 16L13 17L12 17L12 15L13 15L13 14L12 14L12 13L11 13L11 12L10 12L10 13L11 13L11 14L7 14L7 13L6 13L6 14L4 14L4 13L3 13L3 14L2 14L2 13L1 13L1 16L2 16L2 15L3 15L3 14L4 14L4 15L5 15L5 16L7 16L7 17L5 17L5 18L7 18L7 17L8 17L8 16L10 16L10 17L9 17L9 18L8 18L8 19L9 19L9 20L10 20L10 19L9 19L9 18L13 18L13 19L12 19L12 21L15 21L15 22L16 22L16 23L17 23L17 22L18 22L18 21L19 21L19 22L20 22L20 19L21 19L21 18L19 18L19 17L22 17L22 18L23 18L23 15L25 15L25 14L22 14L22 16L21 16L21 15L20 15L20 14L21 14L21 12L22 12L22 13L25 13L25 12L27 12L27 13L28 13L28 12L27 12L27 10L26 10L26 11L23 11L23 10L22 10L22 11L21 11L21 10ZM22 11L22 12L23 12L23 11ZM8 12L8 13L9 13L9 12ZM17 12L17 13L18 13L18 14L20 14L20 13L18 13L18 12ZM6 14L6 15L7 15L7 14ZM10 15L10 16L11 16L11 15ZM3 16L3 17L4 17L4 16ZM14 16L14 17L16 17L16 18L15 18L15 19L14 19L14 20L15 20L15 21L18 21L18 20L19 20L19 19L18 19L18 20L17 20L17 17L18 17L18 16ZM24 16L24 17L25 17L25 16ZM2 19L2 20L3 20L3 19ZM21 21L21 24L24 24L24 21ZM22 22L22 23L23 23L23 22ZM14 23L14 24L15 24L15 23ZM28 23L28 24L26 24L26 25L27 25L27 28L28 28L28 26L29 26L29 25L28 25L28 24L29 24L29 23ZM8 24L8 29L9 29L9 27L10 27L10 26L11 26L11 28L10 28L10 29L12 29L12 27L13 27L13 26L11 26L11 25L10 25L10 24ZM24 27L24 28L25 28L25 27ZM0 0L0 7L7 7L7 0ZM1 1L1 6L6 6L6 1ZM2 2L2 5L5 5L5 2ZM22 0L22 7L29 7L29 0ZM23 1L23 6L28 6L28 1ZM24 2L24 5L27 5L27 2ZM0 22L0 29L7 29L7 22ZM1 23L1 28L6 28L6 23ZM2 24L2 27L5 27L5 24Z" fill="#000000"/></g></g></svg>
