<?xml version="1.0" encoding="UTF-8"?>
<svg xmlns="http://www.w3.org/2000/svg" version="1.1" width="200" height="200" viewBox="0 0 200 200"><rect x="0" y="0" width="200" height="200" fill="#ffffff"/><g transform="scale(6.897)"><g transform="translate(0,0)"><path fill-rule="evenodd" d="M8 0L8 1L11 1L11 3L10 3L10 2L9 2L9 3L10 3L10 5L9 5L9 6L8 6L8 8L9 8L9 9L8 9L8 10L9 10L9 11L8 11L8 12L5 12L5 11L7 11L7 10L6 10L6 9L7 9L7 8L6 8L6 9L5 9L5 8L3 8L3 10L2 10L2 11L3 11L3 10L4 10L4 12L3 12L3 13L2 13L2 14L1 14L1 13L0 13L0 14L1 14L1 15L2 15L2 14L3 14L3 15L4 15L4 16L2 16L2 18L1 18L1 17L0 17L0 21L2 21L2 19L3 19L3 21L4 21L4 20L6 20L6 21L7 21L7 20L9 20L9 19L10 19L10 18L12 18L12 19L11 19L11 21L12 21L12 22L11 22L11 24L10 24L10 25L9 25L9 24L8 24L8 26L9 26L9 27L8 27L8 29L9 29L9 28L12 28L12 27L14 27L14 26L15 26L15 27L16 27L16 28L17 28L17 26L18 26L18 28L19 28L19 27L20 27L20 26L22 26L22 25L25 25L25 20L26 20L26 21L28 21L28 22L29 22L29 21L28 21L28 20L29 20L29 16L27 16L27 15L25 15L25 17L24 17L24 16L23 16L23 15L22 15L22 14L25 14L25 13L23 13L23 12L22 12L22 14L19 14L19 13L17 13L17 12L18 12L18 10L20 10L20 11L19 11L19 12L20 12L20 13L21 13L21 11L22 11L22 9L23 9L23 10L24 10L24 12L26 12L26 14L27 14L27 12L26 12L26 11L27 11L27 10L25 10L25 9L23 9L23 8L22 8L22 9L21 9L21 10L20 10L20 7L21 7L21 6L20 6L20 7L19 7L19 6L18 6L18 8L15 8L15 5L16 5L16 3L15 3L15 2L16 2L16 0L13 0L13 1L12 1L12 0ZM17 0L17 1L18 1L18 3L17 3L17 4L18 4L18 5L20 5L20 4L21 4L21 3L20 3L20 1L21 1L21 0L20 0L20 1L19 1L19 0ZM12 2L12 4L14 4L14 5L15 5L15 4L14 4L14 3L13 3L13 2ZM18 3L18 4L20 4L20 3ZM10 5L10 6L9 6L9 7L10 7L10 9L9 9L9 10L10 10L10 11L9 11L9 12L8 12L8 13L9 13L9 15L8 15L8 14L7 14L7 13L6 13L6 14L7 14L7 15L5 15L5 14L4 14L4 15L5 15L5 16L8 16L8 17L10 17L10 15L11 15L11 16L12 16L12 15L14 15L14 14L17 14L17 13L16 13L16 12L17 12L17 9L15 9L15 11L16 11L16 12L15 12L15 13L13 13L13 12L14 12L14 9L12 9L12 6L13 6L13 8L14 8L14 6L13 6L13 5L12 5L12 6L11 6L11 5ZM10 6L10 7L11 7L11 6ZM16 6L16 7L17 7L17 6ZM0 8L0 12L1 12L1 9L2 9L2 8ZM18 8L18 9L19 9L19 8ZM28 8L28 10L29 10L29 8ZM10 9L10 10L11 10L11 9ZM12 10L12 11L13 11L13 10ZM9 12L9 13L10 13L10 14L11 14L11 12ZM28 12L28 13L29 13L29 12ZM12 13L12 14L13 14L13 13ZM28 14L28 15L29 15L29 14ZM15 15L15 16L13 16L13 17L12 17L12 18L15 18L15 17L16 17L16 19L14 19L14 25L15 25L15 20L16 20L16 23L18 23L18 24L16 24L16 25L19 25L19 23L20 23L20 20L19 20L19 18L18 18L18 19L17 19L17 17L19 17L19 16L18 16L18 15L17 15L17 16L16 16L16 15ZM20 15L20 16L21 16L21 19L23 19L23 20L25 20L25 18L24 18L24 17L23 17L23 16L21 16L21 15ZM3 17L3 19L5 19L5 18L7 18L7 17L5 17L5 18L4 18L4 17ZM26 17L26 18L27 18L27 19L28 19L28 17ZM6 19L6 20L7 20L7 19ZM12 19L12 21L13 21L13 19ZM16 19L16 20L17 20L17 22L18 22L18 23L19 23L19 21L18 21L18 20L17 20L17 19ZM8 21L8 22L9 22L9 23L10 23L10 22L9 22L9 21ZM21 21L21 24L24 24L24 21ZM12 22L12 23L13 23L13 22ZM22 22L22 23L23 23L23 22ZM26 22L26 23L27 23L27 25L26 25L26 26L23 26L23 27L21 27L21 28L20 28L20 29L21 29L21 28L23 28L23 29L25 29L25 27L26 27L26 28L27 28L27 27L28 27L28 28L29 28L29 23L27 23L27 22ZM10 25L10 27L11 27L11 26L13 26L13 25ZM27 25L27 26L26 26L26 27L27 27L27 26L28 26L28 25ZM23 27L23 28L24 28L24 27ZM14 28L14 29L15 29L15 28ZM0 0L0 7L7 7L7 0ZM1 1L1 6L6 6L6 1ZM2 2L2 5L5 5L5 2ZM22 0L22 7L29 7L29 0ZM23 1L23 6L28 6L28 1ZM24 2L24 5L27 5L27 2ZM0 22L0 29L7 29L7 22ZM1 23L1 28L6 28L6 23ZM2 24L2 27L5 27L5 24Z" fill="#000000"/></g></g></svg>
