<?xml version="1.0" encoding="UTF-8"?>
<svg xmlns="http://www.w3.org/2000/svg" version="1.1" width="200" height="200" viewBox="0 0 200 200"><rect x="0" y="0" width="200" height="200" fill="#ffffff"/><g transform="scale(6.897)"><g transform="translate(0,0)"><path fill-rule="evenodd" d="M8 0L8 4L10 4L10 3L11 3L11 4L12 4L12 2L11 2L11 0ZM12 0L12 1L14 1L14 0ZM15 0L15 1L17 1L17 0ZM18 0L18 1L19 1L19 3L18 3L18 2L17 2L17 3L16 3L16 2L14 2L14 3L13 3L13 5L11 5L11 6L10 6L10 7L9 7L9 5L8 5L8 7L9 7L9 8L10 8L10 7L11 7L11 6L12 6L12 8L11 8L11 9L7 9L7 8L4 8L4 9L2 9L2 8L0 8L0 11L1 11L1 12L0 12L0 13L1 13L1 14L2 14L2 15L0 15L0 16L2 16L2 18L3 18L3 19L4 19L4 20L3 20L3 21L4 21L4 20L5 20L5 19L7 19L7 20L6 20L6 21L8 21L8 22L9 22L9 23L8 23L8 25L9 25L9 26L10 26L10 29L11 29L11 28L12 28L12 29L14 29L14 27L15 27L15 28L16 28L16 26L17 26L17 29L18 29L18 28L20 28L20 29L23 29L23 28L24 28L24 27L23 27L23 26L22 26L22 25L24 25L24 26L27 26L27 28L26 28L26 27L25 27L25 29L28 29L28 28L29 28L29 25L28 25L28 23L29 23L29 22L28 22L28 20L29 20L29 18L28 18L28 19L27 19L27 17L28 17L28 16L29 16L29 14L28 14L28 13L25 13L25 12L23 12L23 11L22 11L22 9L21 9L21 8L19 8L19 9L18 9L18 7L19 7L19 6L20 6L20 7L21 7L21 5L17 5L17 3L18 3L18 4L19 4L19 3L20 3L20 4L21 4L21 3L20 3L20 1L19 1L19 0ZM9 2L9 3L10 3L10 2ZM14 5L14 6L13 6L13 8L12 8L12 9L11 9L11 10L7 10L7 9L5 9L5 11L6 11L6 12L5 12L5 14L7 14L7 15L4 15L4 14L3 14L3 13L4 13L4 12L3 12L3 10L2 10L2 9L1 9L1 11L2 11L2 12L1 12L1 13L2 13L2 14L3 14L3 18L4 18L4 17L5 17L5 16L7 16L7 15L9 15L9 14L11 14L11 15L10 15L10 17L9 17L9 18L8 18L8 17L6 17L6 18L8 18L8 21L9 21L9 22L10 22L10 23L9 23L9 24L10 24L10 25L11 25L11 26L12 26L12 25L13 25L13 26L15 26L15 25L17 25L17 26L19 26L19 27L20 27L20 28L23 28L23 27L20 27L20 25L17 25L17 22L19 22L19 23L18 23L18 24L19 24L19 23L20 23L20 22L19 22L19 21L20 21L20 20L19 20L19 21L17 21L17 19L18 19L18 18L19 18L19 19L20 19L20 18L21 18L21 19L22 19L22 18L23 18L23 19L25 19L25 21L27 21L27 19L26 19L26 18L23 18L23 17L24 17L24 15L25 15L25 17L27 17L27 15L28 15L28 14L27 14L27 15L25 15L25 14L24 14L24 15L23 15L23 16L22 16L22 18L21 18L21 16L20 16L20 15L21 15L21 14L22 14L22 13L23 13L23 12L21 12L21 11L20 11L20 9L19 9L19 11L18 11L18 9L17 9L17 7L18 7L18 6L17 6L17 5ZM14 6L14 8L13 8L13 9L12 9L12 10L11 10L11 11L10 11L10 13L11 13L11 12L12 12L12 13L13 13L13 14L15 14L15 15L14 15L14 16L13 16L13 15L12 15L12 16L11 16L11 17L12 17L12 18L9 18L9 21L11 21L11 20L12 20L12 21L13 21L13 22L15 22L15 23L14 23L14 24L13 24L13 23L12 23L12 24L11 24L11 23L10 23L10 24L11 24L11 25L12 25L12 24L13 24L13 25L15 25L15 23L16 23L16 22L17 22L17 21L14 21L14 19L17 19L17 17L18 17L18 16L19 16L19 18L20 18L20 16L19 16L19 14L20 14L20 13L21 13L21 12L19 12L19 13L18 13L18 11L17 11L17 9L15 9L15 6ZM16 6L16 7L17 7L17 6ZM23 8L23 10L25 10L25 11L26 11L26 10L25 10L25 9L28 9L28 10L27 10L27 12L28 12L28 11L29 11L29 8L25 8L25 9L24 9L24 8ZM13 9L13 10L14 10L14 9ZM6 10L6 11L7 11L7 12L6 12L6 13L7 13L7 14L9 14L9 12L8 12L8 11L7 11L7 10ZM12 11L12 12L13 12L13 11ZM14 11L14 13L17 13L17 14L16 14L16 15L15 15L15 17L13 17L13 16L12 16L12 17L13 17L13 18L15 18L15 17L16 17L16 15L17 15L17 14L18 14L18 13L17 13L17 11L16 11L16 12L15 12L15 11ZM7 12L7 13L8 13L8 12ZM0 17L0 18L1 18L1 17ZM10 19L10 20L11 20L11 19ZM12 19L12 20L13 20L13 19ZM0 20L0 21L2 21L2 20ZM21 21L21 24L24 24L24 21ZM22 22L22 23L23 23L23 22ZM27 22L27 23L25 23L25 24L26 24L26 25L27 25L27 26L28 26L28 25L27 25L27 23L28 23L28 22ZM8 27L8 29L9 29L9 27ZM12 27L12 28L13 28L13 27ZM0 0L0 7L7 7L7 0ZM1 1L1 6L6 6L6 1ZM2 2L2 5L5 5L5 2ZM22 0L22 7L29 7L29 0ZM23 1L23 6L28 6L28 1ZM24 2L24 5L27 5L27 2ZM0 22L0 29L7 29L7 22ZM1 23L1 28L6 28L6 23ZM2 24L2 27L5 27L5 24Z" fill="#000000"/></g></g></svg>
