<?xml version="1.0" encoding="UTF-8"?>
<svg xmlns="http://www.w3.org/2000/svg" version="1.1" width="200" height="200" viewBox="0 0 200 200"><rect x="0" y="0" width="200" height="200" fill="#ffffff"/><g transform="scale(6.897)"><g transform="translate(0,0)"><path fill-rule="evenodd" d="M9 0L9 1L8 1L8 2L9 2L9 3L8 3L8 4L10 4L10 7L11 7L11 4L12 4L12 5L13 5L13 6L12 6L12 9L13 9L13 8L14 8L14 9L16 9L16 10L15 10L15 11L14 11L14 12L15 12L15 13L12 13L12 11L13 11L13 10L11 10L11 11L10 11L10 9L11 9L11 8L6 8L6 9L7 9L7 10L5 10L5 11L7 11L7 10L9 10L9 13L8 13L8 14L9 14L9 13L10 13L10 15L11 15L11 13L12 13L12 14L13 14L13 15L12 15L12 17L13 17L13 16L14 16L14 17L16 17L16 18L15 18L15 19L14 19L14 20L15 20L15 21L12 21L12 19L13 19L13 18L11 18L11 16L9 16L9 15L7 15L7 14L5 14L5 12L4 12L4 13L2 13L2 12L3 12L3 11L4 11L4 10L3 10L3 11L2 11L2 12L0 12L0 13L2 13L2 14L1 14L1 15L0 15L0 16L1 16L1 17L0 17L0 21L1 21L1 17L2 17L2 18L3 18L3 17L2 17L2 16L4 16L4 17L5 17L5 16L6 16L6 17L7 17L7 16L8 16L8 18L4 18L4 20L2 20L2 21L4 21L4 20L5 20L5 21L7 21L7 20L6 20L6 19L8 19L8 23L9 23L9 22L10 22L10 24L8 24L8 29L9 29L9 26L10 26L10 27L11 27L11 28L10 28L10 29L12 29L12 27L13 27L13 26L10 26L10 24L11 24L11 22L10 22L10 20L11 20L11 21L12 21L12 22L13 22L13 23L12 23L12 25L13 25L13 24L14 24L14 25L18 25L18 27L19 27L19 29L20 29L20 27L22 27L22 29L23 29L23 28L26 28L26 27L25 27L25 24L26 24L26 23L25 23L25 20L24 20L24 19L27 19L27 18L25 18L25 17L28 17L28 16L29 16L29 15L27 15L27 14L28 14L28 13L29 13L29 12L28 12L28 10L29 10L29 9L28 9L28 8L27 8L27 9L28 9L28 10L27 10L27 12L25 12L25 10L26 10L26 8L25 8L25 9L24 9L24 8L23 8L23 10L20 10L20 9L18 9L18 8L19 8L19 6L18 6L18 8L14 8L14 7L15 7L15 6L16 6L16 7L17 7L17 5L16 5L16 4L12 4L12 2L13 2L13 1L11 1L11 2L10 2L10 0ZM15 0L15 1L17 1L17 2L16 2L16 3L17 3L17 4L18 4L18 5L21 5L21 4L18 4L18 3L17 3L17 2L19 2L19 3L21 3L21 2L19 2L19 1L21 1L21 0L19 0L19 1L17 1L17 0ZM14 2L14 3L15 3L15 2ZM10 3L10 4L11 4L11 3ZM8 5L8 7L9 7L9 5ZM13 6L13 7L14 7L14 6ZM20 6L20 7L21 7L21 6ZM0 8L0 10L1 10L1 9L5 9L5 8ZM21 8L21 9L22 9L22 8ZM17 9L17 10L18 10L18 11L17 11L17 12L16 12L16 13L15 13L15 14L16 14L16 13L17 13L17 16L18 16L18 17L17 17L17 18L16 18L16 19L17 19L17 20L18 20L18 21L15 21L15 22L18 22L18 23L14 23L14 24L18 24L18 25L20 25L20 26L19 26L19 27L20 27L20 26L22 26L22 27L23 27L23 26L24 26L24 25L20 25L20 24L18 24L18 23L20 23L20 21L19 21L19 19L20 19L20 15L21 15L21 14L20 14L20 13L21 13L21 11L20 11L20 10L18 10L18 9ZM18 11L18 12L17 12L17 13L18 13L18 15L19 15L19 13L18 13L18 12L19 12L19 11ZM22 11L22 13L23 13L23 11ZM6 12L6 13L7 13L7 12ZM10 12L10 13L11 13L11 12ZM27 12L27 13L25 13L25 15L24 15L24 14L22 14L22 16L21 16L21 19L22 19L22 20L23 20L23 19L24 19L24 18L23 18L23 17L24 17L24 16L27 16L27 15L26 15L26 14L27 14L27 13L28 13L28 12ZM3 14L3 15L4 15L4 14ZM1 15L1 16L2 16L2 15ZM6 15L6 16L7 16L7 15ZM14 15L14 16L16 16L16 15ZM23 15L23 16L24 16L24 15ZM9 17L9 20L10 20L10 19L11 19L11 18L10 18L10 17ZM17 18L17 19L19 19L19 18ZM28 19L28 20L26 20L26 21L27 21L27 22L28 22L28 21L29 21L29 19ZM18 21L18 22L19 22L19 21ZM21 21L21 24L24 24L24 21ZM22 22L22 23L23 23L23 22ZM28 23L28 24L27 24L27 25L26 25L26 26L27 26L27 28L28 28L28 26L29 26L29 25L28 25L28 24L29 24L29 23ZM15 26L15 27L14 27L14 28L15 28L15 29L18 29L18 28L17 28L17 26ZM15 27L15 28L16 28L16 27ZM0 0L0 7L7 7L7 0ZM1 1L1 6L6 6L6 1ZM2 2L2 5L5 5L5 2ZM22 0L22 7L29 7L29 0ZM23 1L23 6L28 6L28 1ZM24 2L24 5L27 5L27 2ZM0 22L0 29L7 29L7 22ZM1 23L1 28L6 28L6 23ZM2 24L2 27L5 27L5 24Z" fill="#000000"/></g></g></svg>
