<?xml version="1.0" encoding="UTF-8"?>
<svg xmlns="http://www.w3.org/2000/svg" version="1.1" width="200" height="200" viewBox="0 0 200 200"><rect x="0" y="0" width="200" height="200" fill="#ffffff"/><g transform="scale(6.897)"><g transform="translate(0,0)"><path fill-rule="evenodd" d="M9 0L9 1L8 1L8 3L9 3L9 4L8 4L8 8L6 8L6 9L4 9L4 8L3 8L3 9L2 9L2 8L0 8L0 10L1 10L1 11L3 11L3 10L4 10L4 11L5 11L5 12L2 12L2 13L3 13L3 14L2 14L2 15L3 15L3 14L4 14L4 15L5 15L5 16L2 16L2 17L1 17L1 16L0 16L0 17L1 17L1 18L0 18L0 19L1 19L1 18L3 18L3 19L4 19L4 20L2 20L2 21L7 21L7 20L5 20L5 19L7 19L7 18L6 18L6 17L7 17L7 16L8 16L8 17L9 17L9 18L8 18L8 23L9 23L9 22L10 22L10 23L11 23L11 24L9 24L9 25L8 25L8 26L9 26L9 25L10 25L10 27L8 27L8 29L10 29L10 28L12 28L12 29L14 29L14 28L12 28L12 24L14 24L14 25L13 25L13 27L15 27L15 24L16 24L16 23L18 23L18 24L17 24L17 26L16 26L16 27L17 27L17 28L16 28L16 29L19 29L19 28L18 28L18 27L19 27L19 26L20 26L20 29L23 29L23 27L22 27L22 28L21 28L21 26L20 26L20 25L22 25L22 26L24 26L24 27L25 27L25 23L26 23L26 26L28 26L28 27L27 27L27 29L28 29L28 27L29 27L29 26L28 26L28 25L29 25L29 23L28 23L28 21L29 21L29 20L28 20L28 21L27 21L27 20L26 20L26 21L25 21L25 19L29 19L29 18L28 18L28 17L25 17L25 18L24 18L24 17L23 17L23 18L21 18L21 19L19 19L19 17L20 17L20 16L21 16L21 17L22 17L22 15L24 15L24 16L26 16L26 15L25 15L25 14L22 14L22 13L24 13L24 11L25 11L25 13L26 13L26 12L27 12L27 15L29 15L29 13L28 13L28 11L27 11L27 10L26 10L26 9L28 9L28 10L29 10L29 9L28 9L28 8L26 8L26 9L25 9L25 8L22 8L22 11L20 11L20 10L19 10L19 6L20 6L20 7L21 7L21 5L19 5L19 6L18 6L18 5L17 5L17 3L18 3L18 4L20 4L20 3L21 3L21 2L20 2L20 3L18 3L18 2L19 2L19 1L20 1L20 0L18 0L18 2L16 2L16 0L14 0L14 1L13 1L13 0L12 0L12 1L11 1L11 2L9 2L9 1L10 1L10 0ZM13 2L13 3L12 3L12 4L9 4L9 5L10 5L10 6L9 6L9 7L10 7L10 8L8 8L8 10L10 10L10 8L11 8L11 9L12 9L12 10L11 10L11 11L9 11L9 15L8 15L8 16L10 16L10 13L12 13L12 12L13 12L13 15L17 15L17 13L16 13L16 12L14 12L14 11L17 11L17 12L18 12L18 13L20 13L20 12L19 12L19 10L16 10L16 8L17 8L17 9L18 9L18 8L17 8L17 7L18 7L18 6L17 6L17 5L16 5L16 6L15 6L15 5L14 5L14 6L13 6L13 4L14 4L14 3L15 3L15 2ZM11 5L11 6L10 6L10 7L11 7L11 6L12 6L12 8L13 8L13 6L12 6L12 5ZM14 6L14 7L15 7L15 6ZM16 6L16 7L17 7L17 6ZM1 9L1 10L2 10L2 9ZM6 9L6 10L5 10L5 11L6 11L6 12L7 12L7 13L4 13L4 14L5 14L5 15L6 15L6 16L5 16L5 17L3 17L3 18L4 18L4 19L5 19L5 17L6 17L6 16L7 16L7 15L6 15L6 14L7 14L7 13L8 13L8 11L6 11L6 10L7 10L7 9ZM23 9L23 10L25 10L25 9ZM22 11L22 12L21 12L21 13L22 13L22 12L23 12L23 11ZM0 12L0 13L1 13L1 12ZM11 14L11 16L12 16L12 17L11 17L11 18L9 18L9 20L10 20L10 21L11 21L11 20L10 20L10 19L12 19L12 20L13 20L13 21L14 21L14 22L15 22L15 23L14 23L14 24L15 24L15 23L16 23L16 22L17 22L17 21L19 21L19 20L16 20L16 19L17 19L17 18L18 18L18 17L19 17L19 15L22 15L22 14L18 14L18 17L17 17L17 16L15 16L15 17L13 17L13 16L12 16L12 14ZM16 17L16 18L17 18L17 17ZM13 18L13 20L14 20L14 21L15 21L15 20L14 20L14 18ZM23 18L23 20L24 20L24 18ZM0 20L0 21L1 21L1 20ZM21 21L21 24L24 24L24 21ZM26 21L26 22L27 22L27 21ZM18 22L18 23L19 23L19 24L18 24L18 25L20 25L20 22ZM22 22L22 23L23 23L23 22ZM17 26L17 27L18 27L18 26ZM25 28L25 29L26 29L26 28ZM0 0L0 7L7 7L7 0ZM1 1L1 6L6 6L6 1ZM2 2L2 5L5 5L5 2ZM22 0L22 7L29 7L29 0ZM23 1L23 6L28 6L28 1ZM24 2L24 5L27 5L27 2ZM0 22L0 29L7 29L7 22ZM1 23L1 28L6 28L6 23ZM2 24L2 27L5 27L5 24Z" fill="#000000"/></g></g></svg>
