<?xml version="1.0" encoding="UTF-8"?>
<svg xmlns="http://www.w3.org/2000/svg" version="1.1" width="200" height="200" viewBox="0 0 200 200"><rect x="0" y="0" width="200" height="200" fill="#ffffff"/><g transform="scale(6.897)"><g transform="translate(0,0)"><path fill-rule="evenodd" d="M8 0L8 4L10 4L10 3L11 3L11 4L12 4L12 2L11 2L11 0ZM12 0L12 1L13 1L13 0ZM14 0L14 1L15 1L15 0ZM18 0L18 1L19 1L19 3L18 3L18 2L17 2L17 3L18 3L18 4L19 4L19 3L21 3L21 1L19 1L19 0ZM9 2L9 3L10 3L10 2ZM13 2L13 3L14 3L14 4L13 4L13 5L11 5L11 6L10 6L10 7L9 7L9 5L8 5L8 7L9 7L9 8L10 8L10 7L11 7L11 6L12 6L12 8L11 8L11 9L8 9L8 14L9 14L9 15L7 15L7 14L6 14L6 13L7 13L7 12L6 12L6 11L7 11L7 10L6 10L6 9L7 9L7 8L4 8L4 10L3 10L3 9L2 9L2 8L0 8L0 13L1 13L1 16L2 16L2 15L3 15L3 16L5 16L5 17L4 17L4 19L3 19L3 17L0 17L0 18L2 18L2 19L3 19L3 21L4 21L4 20L5 20L5 19L7 19L7 20L6 20L6 21L8 21L8 22L9 22L9 23L8 23L8 25L9 25L9 27L8 27L8 29L9 29L9 28L10 28L10 29L11 29L11 28L12 28L12 29L14 29L14 27L15 27L15 28L16 28L16 29L19 29L19 28L20 28L20 29L23 29L23 28L20 28L20 27L23 27L23 26L22 26L22 25L24 25L24 26L26 26L26 25L28 25L28 26L27 26L27 28L26 28L26 27L25 27L25 29L28 29L28 28L29 28L29 25L28 25L28 24L29 24L29 21L28 21L28 20L29 20L29 17L26 17L26 18L27 18L27 21L26 21L26 20L25 20L25 19L24 19L24 18L25 18L25 15L27 15L27 16L28 16L28 15L29 15L29 13L28 13L28 12L29 12L29 8L25 8L25 9L24 9L24 8L23 8L23 10L25 10L25 11L27 11L27 13L25 13L25 12L23 12L23 11L22 11L22 9L21 9L21 8L19 8L19 6L20 6L20 7L21 7L21 5L17 5L17 4L16 4L16 2L15 2L15 3L14 3L14 2ZM15 5L15 7L16 7L16 8L15 8L15 9L13 9L13 8L14 8L14 6L13 6L13 8L12 8L12 9L11 9L11 10L9 10L9 14L10 14L10 15L9 15L9 18L8 18L8 16L7 16L7 15L6 15L6 14L5 14L5 13L3 13L3 12L2 12L2 10L1 10L1 12L2 12L2 13L3 13L3 14L5 14L5 16L7 16L7 17L6 17L6 18L8 18L8 19L9 19L9 18L12 18L12 17L13 17L13 18L15 18L15 17L17 17L17 18L19 18L19 19L18 19L18 21L17 21L17 19L16 19L16 20L15 20L15 19L14 19L14 21L17 21L17 22L16 22L16 24L15 24L15 25L13 25L13 24L14 24L14 23L15 23L15 22L13 22L13 21L12 21L12 20L13 20L13 19L12 19L12 20L9 20L9 22L10 22L10 21L11 21L11 23L10 23L10 24L9 24L9 25L11 25L11 26L12 26L12 25L13 25L13 26L15 26L15 25L17 25L17 26L16 26L16 28L17 28L17 26L19 26L19 27L18 27L18 28L19 28L19 27L20 27L20 25L19 25L19 24L18 24L18 25L17 25L17 22L18 22L18 21L20 21L20 20L19 20L19 19L20 19L20 18L21 18L21 19L22 19L22 18L23 18L23 17L24 17L24 15L25 15L25 14L24 14L24 15L23 15L23 16L22 16L22 18L21 18L21 16L20 16L20 15L21 15L21 14L22 14L22 13L23 13L23 12L21 12L21 11L20 11L20 9L19 9L19 8L18 8L18 9L17 9L17 7L18 7L18 6L17 6L17 5ZM16 6L16 7L17 7L17 6ZM12 9L12 10L11 10L11 11L10 11L10 13L11 13L11 12L12 12L12 13L13 13L13 14L15 14L15 15L14 15L14 16L13 16L13 15L12 15L12 16L11 16L11 17L12 17L12 16L13 16L13 17L15 17L15 15L17 15L17 17L19 17L19 18L20 18L20 16L18 16L18 15L19 15L19 14L20 14L20 13L21 13L21 12L19 12L19 11L18 11L18 10L19 10L19 9L18 9L18 10L17 10L17 9L15 9L15 10L13 10L13 9ZM4 10L4 12L5 12L5 11L6 11L6 10ZM16 10L16 11L14 11L14 13L16 13L16 11L17 11L17 10ZM12 11L12 12L13 12L13 11ZM18 12L18 13L17 13L17 15L18 15L18 13L19 13L19 12ZM23 19L23 20L24 20L24 19ZM0 20L0 21L2 21L2 20ZM21 21L21 24L24 24L24 21ZM19 22L19 23L20 23L20 22ZM22 22L22 23L23 23L23 22ZM25 22L25 23L26 23L26 24L27 24L27 22ZM12 23L12 24L11 24L11 25L12 25L12 24L13 24L13 23ZM10 27L10 28L11 28L11 27ZM12 27L12 28L13 28L13 27ZM0 0L0 7L7 7L7 0ZM1 1L1 6L6 6L6 1ZM2 2L2 5L5 5L5 2ZM22 0L22 7L29 7L29 0ZM23 1L23 6L28 6L28 1ZM24 2L24 5L27 5L27 2ZM0 22L0 29L7 29L7 22ZM1 23L1 28L6 28L6 23ZM2 24L2 27L5 27L5 24Z" fill="#000000"/></g></g></svg>
