<?xml version="1.0" encoding="UTF-8"?>
<svg xmlns="http://www.w3.org/2000/svg" version="1.1" width="200" height="200" viewBox="0 0 200 200"><rect x="0" y="0" width="200" height="200" fill="#ffffff"/><g transform="scale(6.897)"><g transform="translate(0,0)"><path fill-rule="evenodd" d="M10 0L10 2L11 2L11 0ZM12 0L12 1L13 1L13 2L12 2L12 4L13 4L13 3L14 3L14 4L16 4L16 5L15 5L15 6L14 6L14 8L15 8L15 9L12 9L12 7L13 7L13 5L11 5L11 6L10 6L10 4L11 4L11 3L8 3L8 4L9 4L9 5L8 5L8 7L9 7L9 8L6 8L6 9L8 9L8 10L6 10L6 11L5 11L5 8L0 8L0 9L1 9L1 10L0 10L0 16L1 16L1 17L0 17L0 21L1 21L1 17L4 17L4 19L3 19L3 18L2 18L2 20L4 20L4 21L7 21L7 20L4 20L4 19L5 19L5 17L4 17L4 15L1 15L1 14L3 14L3 13L5 13L5 16L6 16L6 17L7 17L7 16L6 16L6 15L8 15L8 14L9 14L9 16L11 16L11 17L12 17L12 18L13 18L13 19L12 19L12 21L13 21L13 20L14 20L14 21L18 21L18 22L19 22L19 24L20 24L20 26L19 26L19 25L18 25L18 24L15 24L15 23L17 23L17 22L15 22L15 23L14 23L14 24L15 24L15 25L12 25L12 23L13 23L13 22L11 22L11 25L10 25L10 24L8 24L8 29L9 29L9 25L10 25L10 27L11 27L11 25L12 25L12 26L13 26L13 27L12 27L12 29L13 29L13 28L14 28L14 29L16 29L16 27L18 27L18 28L17 28L17 29L18 29L18 28L19 28L19 29L20 29L20 28L21 28L21 27L22 27L22 29L23 29L23 28L24 28L24 29L25 29L25 28L26 28L26 27L25 27L25 26L21 26L21 25L25 25L25 23L26 23L26 21L27 21L27 22L28 22L28 20L29 20L29 19L28 19L28 20L22 20L22 19L26 19L26 18L25 18L25 17L27 17L27 18L28 18L28 16L25 16L25 15L23 15L23 18L22 18L22 17L19 17L19 18L21 18L21 19L20 19L20 22L19 22L19 21L18 21L18 20L14 20L14 19L18 19L18 18L15 18L15 17L18 17L18 16L19 16L19 14L20 14L20 15L21 15L21 16L22 16L22 14L25 14L25 13L27 13L27 14L26 14L26 15L27 15L27 14L28 14L28 13L29 13L29 12L28 12L28 10L29 10L29 9L28 9L28 8L27 8L27 9L26 9L26 8L25 8L25 9L24 9L24 8L23 8L23 9L22 9L22 8L20 8L20 7L21 7L21 6L20 6L20 7L19 7L19 5L20 5L20 4L21 4L21 3L20 3L20 2L21 2L21 1L20 1L20 0L19 0L19 1L20 1L20 2L18 2L18 3L17 3L17 2L16 2L16 0L15 0L15 1L14 1L14 0ZM8 1L8 2L9 2L9 1ZM14 2L14 3L16 3L16 4L17 4L17 5L16 5L16 6L15 6L15 7L16 7L16 6L17 6L17 8L16 8L16 9L15 9L15 10L16 10L16 9L17 9L17 10L19 10L19 11L14 11L14 12L13 12L13 13L12 13L12 11L13 11L13 10L12 10L12 9L11 9L11 8L10 8L10 9L9 9L9 10L8 10L8 11L6 11L6 12L5 12L5 13L6 13L6 14L8 14L8 13L9 13L9 14L10 14L10 15L11 15L11 14L13 14L13 15L12 15L12 17L15 17L15 16L14 16L14 15L15 15L15 14L16 14L16 15L17 15L17 16L18 16L18 15L17 15L17 14L19 14L19 13L20 13L20 14L21 14L21 12L22 12L22 13L25 13L25 12L27 12L27 13L28 13L28 12L27 12L27 10L26 10L26 11L23 11L23 10L22 10L22 11L21 11L21 9L20 9L20 8L19 8L19 9L17 9L17 8L18 8L18 6L17 6L17 5L19 5L19 4L20 4L20 3L19 3L19 4L17 4L17 3L16 3L16 2ZM9 6L9 7L10 7L10 6ZM11 6L11 7L12 7L12 6ZM3 9L3 10L4 10L4 9ZM10 9L10 11L11 11L11 9ZM19 9L19 10L20 10L20 9ZM2 11L2 13L3 13L3 11ZM22 11L22 12L23 12L23 11ZM6 12L6 13L8 13L8 12ZM9 12L9 13L11 13L11 12ZM14 12L14 13L16 13L16 14L17 14L17 13L18 13L18 12ZM24 16L24 17L25 17L25 16ZM9 17L9 18L6 18L6 19L8 19L8 20L9 20L9 18L10 18L10 21L11 21L11 18L10 18L10 17ZM8 21L8 23L9 23L9 21ZM21 21L21 24L24 24L24 21ZM22 22L22 23L23 23L23 22ZM27 23L27 24L26 24L26 25L27 25L27 28L28 28L28 26L29 26L29 25L27 25L27 24L28 24L28 23ZM15 25L15 26L16 26L16 25ZM17 25L17 26L18 26L18 27L19 27L19 28L20 28L20 27L19 27L19 26L18 26L18 25ZM14 27L14 28L15 28L15 27ZM24 27L24 28L25 28L25 27ZM0 0L0 7L7 7L7 0ZM1 1L1 6L6 6L6 1ZM2 2L2 5L5 5L5 2ZM22 0L22 7L29 7L29 0ZM23 1L23 6L28 6L28 1ZM24 2L24 5L27 5L27 2ZM0 22L0 29L7 29L7 22ZM1 23L1 28L6 28L6 23ZM2 24L2 27L5 27L5 24Z" fill="#000000"/></g></g></svg>
