<?xml version="1.0" encoding="UTF-8"?>
<svg xmlns="http://www.w3.org/2000/svg" version="1.1" width="200" height="200" viewBox="0 0 200 200"><rect x="0" y="0" width="200" height="200" fill="#ffffff"/><g transform="scale(8)"><g transform="translate(0,0)"><path fill-rule="evenodd" d="M10 0L10 2L11 2L11 0ZM12 0L12 1L13 1L13 2L12 2L12 4L13 4L13 5L11 5L11 6L10 6L10 4L11 4L11 3L8 3L8 4L9 4L9 5L8 5L8 7L9 7L9 8L6 8L6 9L8 9L8 12L1 12L1 11L0 11L0 12L1 12L1 13L0 13L0 17L1 17L1 13L2 13L2 16L3 16L3 17L4 17L4 16L5 16L5 17L7 17L7 16L9 16L9 17L8 17L8 19L9 19L9 20L8 20L8 25L9 25L9 24L10 24L10 23L9 23L9 21L10 21L10 22L11 22L11 25L13 25L13 24L12 24L12 23L14 23L14 22L15 22L15 25L22 25L22 23L23 23L23 22L24 22L24 23L25 23L25 19L24 19L24 18L25 18L25 16L24 16L24 15L25 15L25 13L24 13L24 12L25 12L25 9L24 9L24 8L23 8L23 9L24 9L24 10L21 10L21 9L22 9L22 8L21 8L21 9L20 9L20 8L19 8L19 9L18 9L18 8L17 8L17 2L15 2L15 3L14 3L14 4L13 4L13 2L14 2L14 1L15 1L15 0L14 0L14 1L13 1L13 0ZM8 1L8 2L9 2L9 1ZM14 4L14 6L13 6L13 7L12 7L12 6L11 6L11 7L12 7L12 9L11 9L11 8L10 8L10 9L9 9L9 12L11 12L11 13L10 13L10 15L9 15L9 16L10 16L10 17L9 17L9 18L10 18L10 17L11 17L11 22L13 22L13 21L16 21L16 22L17 22L17 23L18 23L18 22L19 22L19 21L18 21L18 22L17 22L17 21L16 21L16 20L13 20L13 21L12 21L12 19L14 19L14 18L12 18L12 17L13 17L13 16L15 16L15 17L16 17L16 16L18 16L18 15L19 15L19 16L20 16L20 15L21 15L21 16L22 16L22 17L21 17L21 18L23 18L23 17L24 17L24 16L23 16L23 15L21 15L21 14L19 14L19 13L18 13L18 12L19 12L19 10L20 10L20 13L21 13L21 10L20 10L20 9L19 9L19 10L18 10L18 12L17 12L17 11L16 11L16 10L17 10L17 8L15 8L15 7L16 7L16 6L15 6L15 5L16 5L16 4ZM9 6L9 7L10 7L10 6ZM14 6L14 7L15 7L15 6ZM0 8L0 10L2 10L2 11L3 11L3 10L4 10L4 9L5 9L5 8ZM13 8L13 9L12 9L12 10L14 10L14 9L15 9L15 8ZM10 9L10 11L11 11L11 9ZM5 10L5 11L7 11L7 10ZM12 11L12 13L13 13L13 14L11 14L11 15L10 15L10 16L11 16L11 17L12 17L12 15L16 15L16 14L18 14L18 13L17 13L17 12L16 12L16 11L14 11L14 13L13 13L13 11ZM22 11L22 12L24 12L24 11ZM15 12L15 13L14 13L14 14L16 14L16 12ZM6 13L6 14L3 14L3 16L4 16L4 15L5 15L5 16L7 16L7 15L6 15L6 14L9 14L9 13ZM22 13L22 14L24 14L24 13ZM17 17L17 20L20 20L20 17ZM15 18L15 19L16 19L16 18ZM18 18L18 19L19 19L19 18ZM21 19L21 20L22 20L22 22L20 22L20 23L22 23L22 22L23 22L23 21L24 21L24 19L23 19L23 20L22 20L22 19ZM24 24L24 25L25 25L25 24ZM0 0L0 7L7 7L7 0ZM1 1L1 6L6 6L6 1ZM2 2L2 5L5 5L5 2ZM18 0L18 7L25 7L25 0ZM19 1L19 6L24 6L24 1ZM20 2L20 5L23 5L23 2ZM0 18L0 25L7 25L7 18ZM1 19L1 24L6 24L6 19ZM2 20L2 23L5 23L5 20Z" fill="#000000"/></g></g></svg>
