<?xml version="1.0" encoding="UTF-8"?>
<svg xmlns="http://www.w3.org/2000/svg" version="1.1" width="200" height="200" viewBox="0 0 200 200"><rect x="0" y="0" width="200" height="200" fill="#ffffff"/><g transform="scale(5.405)"><g transform="translate(0,0)"><path fill-rule="evenodd" d="M9 0L9 1L11 1L11 2L9 2L9 3L8 3L8 5L9 5L9 6L8 6L8 7L9 7L9 9L8 9L8 8L5 8L5 9L3 9L3 10L6 10L6 11L7 11L7 12L5 12L5 13L4 13L4 14L3 14L3 15L0 15L0 18L1 18L1 20L2 20L2 22L1 22L1 21L0 21L0 22L1 22L1 23L0 23L0 24L2 24L2 25L0 25L0 29L1 29L1 26L2 26L2 28L3 28L3 29L5 29L5 28L6 28L6 29L7 29L7 28L6 28L6 27L9 27L9 29L8 29L8 32L9 32L9 34L11 34L11 35L10 35L10 36L9 36L9 35L8 35L8 37L10 37L10 36L12 36L12 35L13 35L13 34L11 34L11 33L10 33L10 31L12 31L12 33L13 33L13 32L14 32L14 34L15 34L15 35L14 35L14 36L13 36L13 37L15 37L15 36L16 36L16 37L17 37L17 34L16 34L16 33L15 33L15 32L14 32L14 31L12 31L12 30L15 30L15 31L16 31L16 32L17 32L17 33L18 33L18 34L20 34L20 33L18 33L18 32L21 32L21 31L22 31L22 33L21 33L21 35L22 35L22 37L25 37L25 34L27 34L27 35L26 35L26 37L27 37L27 35L28 35L28 37L29 37L29 35L28 35L28 34L31 34L31 35L32 35L32 36L33 36L33 37L34 37L34 35L32 35L32 34L31 34L31 33L33 33L33 34L35 34L35 35L36 35L36 37L37 37L37 32L36 32L36 31L37 31L37 28L35 28L35 27L37 27L37 26L35 26L35 25L34 25L34 23L32 23L32 22L35 22L35 24L36 24L36 23L37 23L37 22L35 22L35 21L36 21L36 20L37 20L37 18L36 18L36 17L37 17L37 14L36 14L36 13L37 13L37 10L36 10L36 9L34 9L34 8L32 8L32 9L31 9L31 10L30 10L30 9L29 9L29 8L28 8L28 7L29 7L29 6L28 6L28 7L27 7L27 6L26 6L26 5L27 5L27 4L28 4L28 5L29 5L29 3L28 3L28 2L29 2L29 1L28 1L28 2L27 2L27 0L26 0L26 1L25 1L25 2L26 2L26 3L25 3L25 4L26 4L26 5L24 5L24 4L23 4L23 2L22 2L22 0L21 0L21 4L19 4L19 3L20 3L20 2L19 2L19 3L17 3L17 2L16 2L16 0L13 0L13 1L12 1L12 0ZM17 0L17 1L19 1L19 0ZM13 1L13 2L12 2L12 4L11 4L11 7L10 7L10 6L9 6L9 7L10 7L10 8L11 8L11 10L8 10L8 9L6 9L6 10L8 10L8 11L10 11L10 13L8 13L8 12L7 12L7 13L5 13L5 15L4 15L4 16L1 16L1 17L5 17L5 16L7 16L7 15L6 15L6 14L8 14L8 17L6 17L6 18L7 18L7 19L5 19L5 18L3 18L3 20L4 20L4 22L5 22L5 23L2 23L2 24L3 24L3 25L4 25L4 24L5 24L5 23L6 23L6 24L7 24L7 25L5 25L5 27L4 27L4 26L3 26L3 27L4 27L4 28L5 28L5 27L6 27L6 26L9 26L9 25L10 25L10 24L7 24L7 23L6 23L6 22L9 22L9 21L8 21L8 20L7 20L7 19L9 19L9 20L10 20L10 21L11 21L11 24L12 24L12 23L13 23L13 22L12 22L12 21L14 21L14 22L15 22L15 20L16 20L16 21L17 21L17 20L18 20L18 21L19 21L19 23L18 23L18 22L16 22L16 25L19 25L19 24L21 24L21 25L20 25L20 26L17 26L17 27L16 27L16 28L15 28L15 23L14 23L14 25L11 25L11 26L10 26L10 29L9 29L9 30L10 30L10 29L11 29L11 30L12 30L12 29L17 29L17 30L18 30L18 29L17 29L17 28L18 28L18 27L19 27L19 29L20 29L20 28L21 28L21 30L22 30L22 31L23 31L23 36L24 36L24 34L25 34L25 33L24 33L24 32L26 32L26 31L27 31L27 32L28 32L28 29L24 29L24 30L25 30L25 31L23 31L23 30L22 30L22 27L24 27L24 28L28 28L28 27L29 27L29 26L28 26L28 27L26 27L26 25L27 25L27 24L29 24L29 25L30 25L30 26L31 26L31 25L30 25L30 24L29 24L29 23L30 23L30 22L29 22L29 21L28 21L28 22L29 22L29 23L24 23L24 22L26 22L26 21L24 21L24 22L23 22L23 24L22 24L22 22L21 22L21 21L22 21L22 20L23 20L23 17L24 17L24 20L27 20L27 19L25 19L25 18L27 18L27 16L28 16L28 15L30 15L30 16L29 16L29 18L28 18L28 20L30 20L30 19L29 19L29 18L31 18L31 17L32 17L32 18L33 18L33 17L34 17L34 18L35 18L35 19L34 19L34 20L36 20L36 18L35 18L35 17L34 17L34 16L33 16L33 17L32 17L32 16L31 16L31 15L30 15L30 14L31 14L31 13L30 13L30 12L29 12L29 13L30 13L30 14L28 14L28 15L27 15L27 14L26 14L26 13L27 13L27 12L28 12L28 11L27 11L27 12L26 12L26 9L24 9L24 8L23 8L23 7L24 7L24 5L23 5L23 4L22 4L22 5L21 5L21 8L20 8L20 5L19 5L19 8L18 8L18 4L17 4L17 3L16 3L16 2L15 2L15 1ZM14 2L14 4L12 4L12 5L13 5L13 6L12 6L12 9L13 9L13 8L14 8L14 10L15 10L15 9L16 9L16 8L14 8L14 7L15 7L15 5L16 5L16 7L17 7L17 5L16 5L16 3L15 3L15 2ZM9 3L9 5L10 5L10 3ZM26 3L26 4L27 4L27 3ZM13 6L13 7L14 7L14 6ZM22 6L22 7L23 7L23 6ZM25 6L25 8L27 8L27 7L26 7L26 6ZM0 8L0 11L1 11L1 12L0 12L0 13L2 13L2 12L4 12L4 11L2 11L2 8ZM17 8L17 11L14 11L14 12L13 12L13 13L12 13L12 14L13 14L13 15L12 15L12 17L13 17L13 16L14 16L14 17L15 17L15 18L12 18L12 19L11 19L11 18L10 18L10 17L9 17L9 18L10 18L10 19L11 19L11 21L12 21L12 19L14 19L14 20L15 20L15 19L18 19L18 20L21 20L21 19L22 19L22 17L23 17L23 16L25 16L25 17L26 17L26 16L25 16L25 15L26 15L26 14L24 14L24 13L25 13L25 11L24 11L24 13L23 13L23 14L22 14L22 13L21 13L21 12L20 12L20 11L23 11L23 10L24 10L24 9L23 9L23 8L22 8L22 10L20 10L20 9L18 9L18 8ZM28 9L28 10L29 10L29 9ZM11 10L11 12L12 12L12 11L13 11L13 10ZM18 10L18 11L17 11L17 13L16 13L16 12L15 12L15 14L17 14L17 15L15 15L15 16L16 16L16 17L17 17L17 16L18 16L18 17L22 17L22 16L23 16L23 15L24 15L24 14L23 14L23 15L22 15L22 14L21 14L21 16L20 16L20 14L19 14L19 15L18 15L18 14L17 14L17 13L19 13L19 12L18 12L18 11L20 11L20 10ZM32 10L32 11L31 11L31 12L32 12L32 15L35 15L35 12L36 12L36 11L35 11L35 10L34 10L34 13L33 13L33 12L32 12L32 11L33 11L33 10ZM10 13L10 14L9 14L9 15L10 15L10 16L11 16L11 13ZM30 16L30 17L31 17L31 16ZM4 19L4 20L5 20L5 21L7 21L7 20L5 20L5 19ZM31 19L31 22L32 22L32 20L33 20L33 19ZM24 24L24 25L22 25L22 26L24 26L24 25L25 25L25 24ZM32 24L32 27L31 27L31 28L34 28L34 27L35 27L35 26L33 26L33 24ZM11 26L11 29L12 29L12 27L13 27L13 26ZM20 26L20 27L21 27L21 26ZM29 29L29 32L32 32L32 29ZM33 29L33 30L35 30L35 31L34 31L34 32L35 32L35 33L36 33L36 32L35 32L35 31L36 31L36 30L35 30L35 29ZM30 30L30 31L31 31L31 30ZM17 31L17 32L18 32L18 31ZM18 35L18 36L19 36L19 37L21 37L21 36L19 36L19 35ZM30 36L30 37L31 37L31 36ZM0 0L0 7L7 7L7 0ZM1 1L1 6L6 6L6 1ZM2 2L2 5L5 5L5 2ZM30 0L30 7L37 7L37 0ZM31 1L31 6L36 6L36 1ZM32 2L32 5L35 5L35 2ZM0 30L0 37L7 37L7 30ZM1 31L1 36L6 36L6 31ZM2 32L2 35L5 35L5 32Z" fill="#000000"/></g></g></svg>
