<?xml version="1.0" encoding="UTF-8"?>
<svg xmlns="http://www.w3.org/2000/svg" version="1.1" width="200" height="200" viewBox="0 0 200 200"><rect x="0" y="0" width="200" height="200" fill="#ffffff"/><g transform="scale(6.897)"><g transform="translate(0,0)"><path fill-rule="evenodd" d="M8 0L8 1L9 1L9 2L10 2L10 3L11 3L11 1L14 1L14 2L12 2L12 4L11 4L11 5L10 5L10 4L9 4L9 5L10 5L10 8L9 8L9 6L8 6L8 8L9 8L9 9L7 9L7 8L6 8L6 9L5 9L5 8L3 8L3 9L4 9L4 10L5 10L5 11L3 11L3 12L0 12L0 13L1 13L1 14L2 14L2 13L3 13L3 12L4 12L4 13L5 13L5 12L6 12L6 13L8 13L8 16L5 16L5 17L8 17L8 19L7 19L7 18L6 18L6 19L7 19L7 20L4 20L4 19L3 19L3 18L4 18L4 15L5 15L5 14L3 14L3 15L1 15L1 16L0 16L0 21L2 21L2 20L3 20L3 21L8 21L8 22L10 22L10 24L11 24L11 21L9 21L9 20L10 20L10 19L12 19L12 21L14 21L14 24L13 24L13 25L12 25L12 26L13 26L13 25L15 25L15 26L14 26L14 27L12 27L12 28L10 28L10 29L13 29L13 28L15 28L15 29L17 29L17 27L18 27L18 28L19 28L19 29L22 29L22 28L23 28L23 29L24 29L24 28L26 28L26 29L27 29L27 27L28 27L28 28L29 28L29 25L28 25L28 24L29 24L29 23L28 23L28 24L27 24L27 25L26 25L26 24L25 24L25 23L26 23L26 22L27 22L27 21L28 21L28 22L29 22L29 21L28 21L28 20L29 20L29 17L28 17L28 16L29 16L29 14L28 14L28 13L29 13L29 12L27 12L27 13L25 13L25 12L23 12L23 11L25 11L25 10L26 10L26 11L27 11L27 10L26 10L26 9L23 9L23 8L22 8L22 9L21 9L21 10L20 10L20 12L19 12L19 11L18 11L18 10L19 10L19 9L20 9L20 8L21 8L21 3L20 3L20 2L21 2L21 1L19 1L19 0L17 0L17 1L18 1L18 2L19 2L19 3L20 3L20 4L19 4L19 5L18 5L18 3L16 3L16 2L15 2L15 1L14 1L14 0L11 0L11 1L9 1L9 0ZM14 3L14 4L12 4L12 5L11 5L11 7L12 7L12 9L10 9L10 10L8 10L8 11L6 11L6 12L8 12L8 13L9 13L9 11L10 11L10 10L12 10L12 11L13 11L13 13L11 13L11 12L10 12L10 14L13 14L13 15L12 15L12 16L11 16L11 15L10 15L10 17L14 17L14 18L12 18L12 19L13 19L13 20L14 20L14 19L15 19L15 17L14 17L14 16L15 16L15 15L14 15L14 14L13 14L13 13L15 13L15 12L17 12L17 14L16 14L16 15L17 15L17 17L16 17L16 18L17 18L17 19L16 19L16 23L15 23L15 24L16 24L16 25L17 25L17 26L16 26L16 27L17 27L17 26L18 26L18 27L19 27L19 28L20 28L20 26L21 26L21 27L22 27L22 26L24 26L24 25L22 25L22 26L21 26L21 25L19 25L19 24L17 24L17 22L18 22L18 23L20 23L20 22L18 22L18 21L20 21L20 20L19 20L19 19L18 19L18 18L20 18L20 19L21 19L21 20L25 20L25 22L26 22L26 20L25 20L25 19L24 19L24 17L23 17L23 16L22 16L22 15L24 15L24 16L26 16L26 17L25 17L25 18L26 18L26 19L28 19L28 17L27 17L27 16L26 16L26 15L28 15L28 14L25 14L25 15L24 15L24 14L23 14L23 13L22 13L22 12L20 12L20 14L21 14L21 13L22 13L22 15L20 15L20 16L22 16L22 17L21 17L21 18L20 18L20 17L19 17L19 16L18 16L18 15L19 15L19 14L18 14L18 13L19 13L19 12L17 12L17 10L18 10L18 9L19 9L19 7L20 7L20 5L19 5L19 7L18 7L18 5L16 5L16 3ZM14 4L14 5L12 5L12 7L13 7L13 8L14 8L14 10L15 10L15 11L16 11L16 9L18 9L18 8L17 8L17 6L16 6L16 7L15 7L15 4ZM13 6L13 7L14 7L14 8L15 8L15 7L14 7L14 6ZM0 8L0 11L1 11L1 10L2 10L2 8ZM28 8L28 10L29 10L29 8ZM6 9L6 10L7 10L7 9ZM12 9L12 10L13 10L13 9ZM21 10L21 11L23 11L23 10ZM6 14L6 15L7 15L7 14ZM17 14L17 15L18 15L18 14ZM1 16L1 18L3 18L3 17L2 17L2 16ZM17 17L17 18L18 18L18 17ZM9 18L9 19L8 19L8 20L9 20L9 19L10 19L10 18ZM21 18L21 19L23 19L23 18ZM17 20L17 21L18 21L18 20ZM21 21L21 24L24 24L24 21ZM12 22L12 23L13 23L13 22ZM22 22L22 23L23 23L23 22ZM8 24L8 26L9 26L9 27L8 27L8 29L9 29L9 27L11 27L11 26L9 26L9 24ZM18 25L18 26L19 26L19 25ZM27 25L27 26L26 26L26 27L27 27L27 26L28 26L28 25ZM23 27L23 28L24 28L24 27ZM0 0L0 7L7 7L7 0ZM1 1L1 6L6 6L6 1ZM2 2L2 5L5 5L5 2ZM22 0L22 7L29 7L29 0ZM23 1L23 6L28 6L28 1ZM24 2L24 5L27 5L27 2ZM0 22L0 29L7 29L7 22ZM1 23L1 28L6 28L6 23ZM2 24L2 27L5 27L5 24Z" fill="#000000"/></g></g></svg>
