<?xml version="1.0" encoding="UTF-8"?>
<svg xmlns="http://www.w3.org/2000/svg" version="1.1" width="200" height="200" viewBox="0 0 200 200"><rect x="0" y="0" width="200" height="200" fill="#ffffff"/><g transform="scale(6.897)"><g transform="translate(0,0)"><path fill-rule="evenodd" d="M9 0L9 1L8 1L8 2L9 2L9 3L8 3L8 4L10 4L10 7L11 7L11 4L12 4L12 5L13 5L13 6L12 6L12 9L14 9L14 11L15 11L15 13L14 13L14 12L13 12L13 13L12 13L12 11L13 11L13 10L11 10L11 11L10 11L10 9L11 9L11 8L6 8L6 9L5 9L5 8L0 8L0 9L1 9L1 10L0 10L0 11L1 11L1 12L2 12L2 13L0 13L0 15L1 15L1 16L3 16L3 17L2 17L2 18L3 18L3 19L2 19L2 20L3 20L3 21L5 21L5 20L6 20L6 21L8 21L8 23L9 23L9 24L8 24L8 29L13 29L13 28L12 28L12 27L19 27L19 26L21 26L21 27L22 27L22 29L23 29L23 28L24 28L24 29L26 29L26 26L27 26L27 28L28 28L28 26L29 26L29 23L28 23L28 24L27 24L27 25L26 25L26 26L24 26L24 27L22 27L22 26L21 26L21 25L25 25L25 24L26 24L26 23L27 23L27 22L28 22L28 21L29 21L29 19L28 19L28 20L27 20L27 22L26 22L26 17L25 17L25 16L26 16L26 15L25 15L25 14L27 14L27 13L28 13L28 12L29 12L29 11L27 11L27 13L25 13L25 12L26 12L26 11L25 11L25 10L28 10L28 8L27 8L27 9L26 9L26 8L25 8L25 9L24 9L24 8L23 8L23 10L22 10L22 8L21 8L21 3L20 3L20 2L19 2L19 3L15 3L15 2L18 2L18 1L19 1L19 0L17 0L17 1L15 1L15 0L14 0L14 1L11 1L11 2L10 2L10 0ZM20 0L20 1L21 1L21 0ZM14 1L14 2L12 2L12 4L13 4L13 5L14 5L14 6L13 6L13 8L14 8L14 9L15 9L15 10L16 10L16 11L17 11L17 12L16 12L16 13L15 13L15 14L14 14L14 13L13 13L13 14L12 14L12 13L11 13L11 12L10 12L10 13L8 13L8 12L9 12L9 11L8 11L8 10L9 10L9 9L8 9L8 10L7 10L7 9L6 9L6 10L5 10L5 11L6 11L6 12L7 12L7 13L5 13L5 12L4 12L4 10L3 10L3 9L2 9L2 11L3 11L3 13L2 13L2 14L1 14L1 15L3 15L3 16L5 16L5 17L6 17L6 18L7 18L7 19L6 19L6 20L7 20L7 19L8 19L8 20L9 20L9 21L10 21L10 22L9 22L9 23L11 23L11 25L9 25L9 28L10 28L10 27L11 27L11 26L16 26L16 25L17 25L17 26L19 26L19 25L20 25L20 24L18 24L18 23L20 23L20 22L18 22L18 21L20 21L20 19L22 19L22 20L24 20L24 18L23 18L23 17L24 17L24 16L25 16L25 15L24 15L24 16L23 16L23 14L22 14L22 16L20 16L20 17L19 17L19 15L20 15L20 13L21 13L21 12L22 12L22 13L24 13L24 12L25 12L25 11L23 11L23 12L22 12L22 10L20 10L20 9L21 9L21 8L20 8L20 3L19 3L19 8L18 8L18 4L17 4L17 5L16 5L16 4L15 4L15 3L14 3L14 2L15 2L15 1ZM10 3L10 4L11 4L11 3ZM13 3L13 4L14 4L14 5L15 5L15 6L14 6L14 7L15 7L15 6L16 6L16 8L15 8L15 9L16 9L16 10L17 10L17 11L19 11L19 10L17 10L17 9L18 9L18 8L17 8L17 6L16 6L16 5L15 5L15 4L14 4L14 3ZM8 5L8 7L9 7L9 5ZM16 8L16 9L17 9L17 8ZM6 10L6 11L7 11L7 12L8 12L8 11L7 11L7 10ZM20 11L20 12L19 12L19 13L18 13L18 12L17 12L17 13L16 13L16 14L15 14L15 15L17 15L17 13L18 13L18 15L19 15L19 13L20 13L20 12L21 12L21 11ZM4 13L4 14L5 14L5 15L8 15L8 17L7 17L7 16L6 16L6 17L7 17L7 18L8 18L8 19L9 19L9 18L8 18L8 17L9 17L9 16L10 16L10 17L11 17L11 16L10 16L10 15L11 15L11 13L10 13L10 14L5 14L5 13ZM13 14L13 15L12 15L12 17L14 17L14 18L10 18L10 21L12 21L12 22L13 22L13 21L16 21L16 22L14 22L14 23L15 23L15 24L13 24L13 23L12 23L12 25L16 25L16 24L17 24L17 25L18 25L18 24L17 24L17 23L16 23L16 22L17 22L17 21L18 21L18 20L19 20L19 19L18 19L18 18L19 18L19 17L18 17L18 16L13 16L13 15L14 15L14 14ZM27 16L27 18L28 18L28 16ZM0 17L0 21L1 21L1 17ZM3 17L3 18L4 18L4 19L5 19L5 18L4 18L4 17ZM15 17L15 18L14 18L14 19L12 19L12 21L13 21L13 20L14 20L14 19L15 19L15 20L16 20L16 21L17 21L17 20L18 20L18 19L17 19L17 18L18 18L18 17L17 17L17 18L16 18L16 17ZM20 17L20 18L22 18L22 17ZM15 18L15 19L16 19L16 20L17 20L17 19L16 19L16 18ZM21 21L21 24L24 24L24 21ZM22 22L22 23L23 23L23 22ZM24 27L24 28L25 28L25 27ZM15 28L15 29L18 29L18 28ZM19 28L19 29L20 29L20 28ZM0 0L0 7L7 7L7 0ZM1 1L1 6L6 6L6 1ZM2 2L2 5L5 5L5 2ZM22 0L22 7L29 7L29 0ZM23 1L23 6L28 6L28 1ZM24 2L24 5L27 5L27 2ZM0 22L0 29L7 29L7 22ZM1 23L1 28L6 28L6 23ZM2 24L2 27L5 27L5 24Z" fill="#000000"/></g></g></svg>
