<?xml version="1.0" encoding="UTF-8"?>
<svg xmlns="http://www.w3.org/2000/svg" version="1.1" width="200" height="200" viewBox="0 0 200 200"><rect x="0" y="0" width="200" height="200" fill="#ffffff"/><g transform="scale(6.897)"><g transform="translate(0,0)"><path fill-rule="evenodd" d="M8 0L8 1L9 1L9 2L10 2L10 3L11 3L11 1L13 1L13 2L12 2L12 4L11 4L11 5L10 5L10 4L9 4L9 5L10 5L10 8L9 8L9 6L8 6L8 8L9 8L9 9L8 9L8 11L7 11L7 10L6 10L6 11L7 11L7 12L5 12L5 14L1 14L1 12L2 12L2 13L4 13L4 10L5 10L5 8L3 8L3 9L2 9L2 8L0 8L0 10L1 10L1 12L0 12L0 21L2 21L2 20L4 20L4 21L8 21L8 22L9 22L9 24L8 24L8 26L9 26L9 27L8 27L8 29L10 29L10 28L11 28L11 29L13 29L13 28L15 28L15 29L16 29L16 27L17 27L17 24L18 24L18 23L19 23L19 25L18 25L18 26L19 26L19 27L18 27L18 28L19 28L19 29L21 29L21 28L22 28L22 29L24 29L24 28L27 28L27 27L28 27L28 28L29 28L29 24L28 24L28 26L27 26L27 27L26 27L26 25L27 25L27 24L26 24L26 23L27 23L27 21L28 21L28 22L29 22L29 17L28 17L28 16L29 16L29 14L28 14L28 15L26 15L26 14L27 14L27 13L23 13L23 10L24 10L24 12L25 12L25 9L23 9L23 8L22 8L22 9L20 9L20 8L21 8L21 6L20 6L20 7L19 7L19 6L18 6L18 5L20 5L20 4L21 4L21 1L18 1L18 0L17 0L17 1L16 1L16 2L15 2L15 3L16 3L16 7L15 7L15 4L14 4L14 1L15 1L15 0L11 0L11 1L9 1L9 0ZM17 2L17 3L18 3L18 4L20 4L20 2ZM12 4L12 5L11 5L11 7L12 7L12 9L10 9L10 10L9 10L9 11L8 11L8 12L9 12L9 11L10 11L10 10L12 10L12 11L13 11L13 10L12 10L12 9L13 9L13 7L14 7L14 6L13 6L13 7L12 7L12 5L14 5L14 4ZM17 6L17 7L16 7L16 11L15 11L15 10L14 10L14 13L15 13L15 12L16 12L16 15L17 15L17 17L23 17L23 18L24 18L24 17L25 17L25 16L26 16L26 18L25 18L25 19L24 19L24 20L25 20L25 19L26 19L26 18L27 18L27 19L28 19L28 17L27 17L27 16L26 16L26 15L24 15L24 14L23 14L23 15L24 15L24 17L23 17L23 16L22 16L22 15L21 15L21 14L22 14L22 13L18 13L18 12L17 12L17 10L18 10L18 11L19 11L19 12L22 12L22 11L21 11L21 10L19 10L19 9L17 9L17 8L19 8L19 7L18 7L18 6ZM6 8L6 9L7 9L7 8ZM14 8L14 9L15 9L15 8ZM28 8L28 9L26 9L26 11L28 11L28 12L29 12L29 11L28 11L28 9L29 9L29 8ZM1 9L1 10L2 10L2 12L3 12L3 10L4 10L4 9L3 9L3 10L2 10L2 9ZM22 9L22 10L23 10L23 9ZM10 12L10 13L8 13L8 14L7 14L7 13L6 13L6 14L5 14L5 16L4 16L4 15L3 15L3 17L2 17L2 16L1 16L1 18L2 18L2 19L4 19L4 20L8 20L8 21L9 21L9 22L10 22L10 19L11 19L11 25L10 25L10 24L9 24L9 26L10 26L10 27L9 27L9 28L10 28L10 27L11 27L11 28L12 28L12 27L14 27L14 26L15 26L15 25L13 25L13 24L14 24L14 21L12 21L12 19L13 19L13 20L14 20L14 19L15 19L15 18L12 18L12 19L11 19L11 18L10 18L10 19L9 19L9 17L5 17L5 16L7 16L7 15L9 15L9 14L13 14L13 13L11 13L11 12ZM6 14L6 15L7 15L7 14ZM14 14L14 15L12 15L12 16L11 16L11 15L10 15L10 17L14 17L14 16L15 16L15 14ZM19 14L19 15L20 15L20 14ZM3 17L3 18L4 18L4 19L5 19L5 18L4 18L4 17ZM6 18L6 19L8 19L8 18ZM16 18L16 19L17 19L17 20L16 20L16 22L17 22L17 23L18 23L18 22L20 22L20 20L23 20L23 19L22 19L22 18L20 18L20 19L17 19L17 18ZM17 20L17 21L18 21L18 20ZM21 21L21 24L24 24L24 21ZM25 21L25 23L26 23L26 21ZM12 22L12 23L13 23L13 22ZM22 22L22 23L23 23L23 22ZM15 23L15 24L16 24L16 23ZM12 25L12 26L13 26L13 25ZM19 25L19 26L20 26L20 25ZM22 25L22 28L23 28L23 26L25 26L25 25ZM20 27L20 28L21 28L21 27ZM0 0L0 7L7 7L7 0ZM1 1L1 6L6 6L6 1ZM2 2L2 5L5 5L5 2ZM22 0L22 7L29 7L29 0ZM23 1L23 6L28 6L28 1ZM24 2L24 5L27 5L27 2ZM0 22L0 29L7 29L7 22ZM1 23L1 28L6 28L6 23ZM2 24L2 27L5 27L5 24Z" fill="#000000"/></g></g></svg>
