<?xml version="1.0" encoding="UTF-8"?>
<svg xmlns="http://www.w3.org/2000/svg" version="1.1" width="200" height="200" viewBox="0 0 200 200"><rect x="0" y="0" width="200" height="200" fill="#ffffff"/><g transform="scale(8)"><g transform="translate(0,0)"><path fill-rule="evenodd" d="M10 0L10 1L9 1L9 2L8 2L8 3L9 3L9 5L10 5L10 7L11 7L11 6L12 6L12 7L13 7L13 9L12 9L12 10L13 10L13 9L14 9L14 7L15 7L15 6L16 6L16 7L17 7L17 6L16 6L16 4L15 4L15 2L16 2L16 3L17 3L17 2L16 2L16 0L14 0L14 4L12 4L12 5L10 5L10 3L9 3L9 2L10 2L10 1L11 1L11 0ZM11 2L11 3L12 3L12 2ZM12 5L12 6L13 6L13 7L14 7L14 6L15 6L15 5L14 5L14 6L13 6L13 5ZM8 6L8 8L4 8L4 9L3 9L3 8L0 8L0 10L2 10L2 12L3 12L3 11L5 11L5 13L7 13L7 14L5 14L5 15L3 15L3 14L4 14L4 13L3 13L3 14L2 14L2 15L1 15L1 14L0 14L0 15L1 15L1 16L0 16L0 17L1 17L1 16L4 16L4 17L5 17L5 15L7 15L7 16L6 16L6 17L8 17L8 21L9 21L9 22L8 22L8 25L9 25L9 24L10 24L10 25L14 25L14 24L15 24L15 25L17 25L17 21L20 21L20 23L18 23L18 24L20 24L20 23L21 23L21 25L22 25L22 23L21 23L21 22L23 22L23 21L24 21L24 19L25 19L25 18L22 18L22 19L23 19L23 20L22 20L22 21L21 21L21 16L20 16L20 13L19 13L19 12L20 12L20 11L23 11L23 12L21 12L21 15L22 15L22 13L23 13L23 12L24 12L24 13L25 13L25 10L24 10L24 9L23 9L23 8L22 8L22 9L21 9L21 10L20 10L20 11L19 11L19 12L16 12L16 11L18 11L18 10L19 10L19 8L15 8L15 9L16 9L16 11L15 11L15 10L14 10L14 11L11 11L11 10L10 10L10 9L9 9L9 6ZM4 9L4 10L5 10L5 11L6 11L6 12L7 12L7 13L8 13L8 12L9 12L9 14L7 14L7 15L8 15L8 16L9 16L9 15L12 15L12 16L13 16L13 14L12 14L12 13L13 13L13 12L11 12L11 14L10 14L10 12L9 12L9 11L10 11L10 10L9 10L9 11L8 11L8 12L7 12L7 11L6 11L6 10L7 10L7 9ZM14 11L14 16L17 16L17 15L16 15L16 14L18 14L18 13L16 13L16 12L15 12L15 11ZM23 14L23 15L25 15L25 14ZM22 16L22 17L25 17L25 16ZM9 17L9 18L10 18L10 20L9 20L9 21L10 21L10 22L11 22L11 23L10 23L10 24L13 24L13 23L12 23L12 20L11 20L11 19L14 19L14 21L13 21L13 22L15 22L15 21L16 21L16 19L14 19L14 18L15 18L15 17L14 17L14 18L12 18L12 17ZM17 17L17 20L20 20L20 17ZM18 18L18 19L19 19L19 18ZM10 20L10 21L11 21L11 20ZM24 22L24 23L23 23L23 25L25 25L25 24L24 24L24 23L25 23L25 22ZM0 0L0 7L7 7L7 0ZM1 1L1 6L6 6L6 1ZM2 2L2 5L5 5L5 2ZM18 0L18 7L25 7L25 0ZM19 1L19 6L24 6L24 1ZM20 2L20 5L23 5L23 2ZM0 18L0 25L7 25L7 18ZM1 19L1 24L6 24L6 19ZM2 20L2 23L5 23L5 20Z" fill="#000000"/></g></g></svg>
