<?xml version="1.0" encoding="UTF-8"?>
<svg xmlns="http://www.w3.org/2000/svg" version="1.1" width="200" height="200" viewBox="0 0 200 200"><rect x="0" y="0" width="200" height="200" fill="#ffffff"/><g transform="scale(6.897)"><g transform="translate(0,0)"><path fill-rule="evenodd" d="M9 0L9 1L10 1L10 2L8 2L8 3L9 3L9 4L10 4L10 5L9 5L9 6L8 6L8 8L4 8L4 9L3 9L3 8L0 8L0 9L2 9L2 10L0 10L0 13L1 13L1 15L3 15L3 14L2 14L2 13L1 13L1 12L2 12L2 11L3 11L3 13L4 13L4 12L5 12L5 10L6 10L6 11L8 11L8 12L6 12L6 13L5 13L5 15L7 15L7 16L5 16L5 17L7 17L7 16L9 16L9 18L6 18L6 19L7 19L7 20L6 20L6 21L7 21L7 20L8 20L8 25L9 25L9 26L8 26L8 29L10 29L10 28L12 28L12 29L13 29L13 28L12 28L12 27L11 27L11 26L12 26L12 24L14 24L14 26L13 26L13 27L14 27L14 26L15 26L15 25L16 25L16 27L15 27L15 28L16 28L16 29L18 29L18 28L19 28L19 29L21 29L21 28L20 28L20 26L21 26L21 27L23 27L23 28L22 28L22 29L23 29L23 28L24 28L24 27L25 27L25 26L26 26L26 27L27 27L27 28L26 28L26 29L29 29L29 28L28 28L28 27L29 27L29 22L28 22L28 21L29 21L29 20L27 20L27 26L26 26L26 25L25 25L25 24L26 24L26 23L25 23L25 22L26 22L26 15L25 15L25 14L26 14L26 11L27 11L27 10L28 10L28 13L29 13L29 9L27 9L27 8L26 8L26 10L24 10L24 13L25 13L25 14L24 14L24 17L25 17L25 18L23 18L23 16L22 16L22 15L20 15L20 16L19 16L19 18L18 18L18 19L17 19L17 18L16 18L16 19L17 19L17 22L16 22L16 23L17 23L17 24L15 24L15 22L14 22L14 21L13 21L13 20L12 20L12 19L11 19L11 18L12 18L12 16L14 16L14 18L13 18L13 19L14 19L14 18L15 18L15 14L14 14L14 13L13 13L13 12L12 12L12 11L11 11L11 12L12 12L12 13L11 13L11 15L12 15L12 16L11 16L11 18L10 18L10 16L9 16L9 14L10 14L10 13L9 13L9 14L8 14L8 12L9 12L9 11L10 11L10 10L12 10L12 8L14 8L14 9L15 9L15 8L16 8L16 11L15 11L15 13L16 13L16 11L17 11L17 13L18 13L18 11L17 11L17 10L18 10L18 8L20 8L20 9L19 9L19 10L20 10L20 11L19 11L19 12L21 12L21 13L19 13L19 14L17 14L17 17L18 17L18 15L19 15L19 14L21 14L21 13L23 13L23 12L21 12L21 11L23 11L23 10L21 10L21 9L23 9L23 8L20 8L20 7L21 7L21 4L20 4L20 3L21 3L21 2L20 2L20 0L19 0L19 2L20 2L20 3L18 3L18 4L17 4L17 1L16 1L16 0L14 0L14 1L13 1L13 0L12 0L12 1L10 1L10 0ZM11 2L11 3L12 3L12 4L11 4L11 5L10 5L10 6L9 6L9 7L10 7L10 6L11 6L11 8L12 8L12 6L13 6L13 7L14 7L14 6L15 6L15 7L16 7L16 6L15 6L15 5L14 5L14 2L13 2L13 3L12 3L12 2ZM16 4L16 5L17 5L17 4ZM13 5L13 6L14 6L14 5ZM18 5L18 6L17 6L17 7L18 7L18 6L19 6L19 7L20 7L20 6L19 6L19 5ZM9 8L9 10L10 10L10 8ZM6 9L6 10L8 10L8 9ZM3 10L3 11L4 11L4 10ZM13 10L13 11L14 11L14 10ZM6 13L6 14L7 14L7 15L8 15L8 14L7 14L7 13ZM13 14L13 15L14 15L14 14ZM27 14L27 19L29 19L29 18L28 18L28 17L29 17L29 14ZM2 16L2 17L1 17L1 18L0 18L0 19L1 19L1 20L0 20L0 21L1 21L1 20L2 20L2 19L3 19L3 18L4 18L4 21L5 21L5 18L4 18L4 16ZM21 16L21 17L22 17L22 16ZM1 18L1 19L2 19L2 18ZM19 18L19 19L20 19L20 20L21 20L21 19L22 19L22 20L23 20L23 19L22 19L22 18ZM8 19L8 20L9 20L9 21L10 21L10 22L11 22L11 21L12 21L12 20L11 20L11 21L10 21L10 20L9 20L9 19ZM18 20L18 21L19 21L19 24L18 24L18 26L17 26L17 27L18 27L18 26L20 26L20 21L19 21L19 20ZM21 21L21 24L24 24L24 21ZM13 22L13 23L14 23L14 22ZM22 22L22 23L23 23L23 22ZM9 23L9 24L10 24L10 26L9 26L9 28L10 28L10 26L11 26L11 24L12 24L12 23ZM21 25L21 26L23 26L23 25ZM24 25L24 26L25 26L25 25ZM27 26L27 27L28 27L28 26ZM0 0L0 7L7 7L7 0ZM1 1L1 6L6 6L6 1ZM2 2L2 5L5 5L5 2ZM22 0L22 7L29 7L29 0ZM23 1L23 6L28 6L28 1ZM24 2L24 5L27 5L27 2ZM0 22L0 29L7 29L7 22ZM1 23L1 28L6 28L6 23ZM2 24L2 27L5 27L5 24Z" fill="#000000"/></g></g></svg>
