<?xml version="1.0" encoding="UTF-8"?>
<svg xmlns="http://www.w3.org/2000/svg" version="1.1" width="200" height="200" viewBox="0 0 200 200"><rect x="0" y="0" width="200" height="200" fill="#ffffff"/><g transform="scale(6.897)"><g transform="translate(0,0)"><path fill-rule="evenodd" d="M9 0L9 1L8 1L8 3L9 3L9 4L8 4L8 8L6 8L6 9L7 9L7 10L5 10L5 9L4 9L4 8L3 8L3 10L2 10L2 11L0 11L0 13L1 13L1 14L0 14L0 16L1 16L1 14L2 14L2 13L4 13L4 12L2 12L2 11L4 11L4 10L5 10L5 14L6 14L6 15L7 15L7 16L5 16L5 18L6 18L6 19L4 19L4 18L3 18L3 17L4 17L4 16L3 16L3 17L2 17L2 21L3 21L3 19L4 19L4 20L5 20L5 21L8 21L8 23L9 23L9 24L10 24L10 25L8 25L8 26L9 26L9 27L8 27L8 29L10 29L10 28L12 28L12 29L14 29L14 28L12 28L12 24L14 24L14 25L13 25L13 27L15 27L15 24L14 24L14 23L15 23L15 22L14 22L14 21L15 21L15 20L19 20L19 18L20 18L20 16L19 16L19 14L18 14L18 12L17 12L17 13L16 13L16 11L14 11L14 12L15 12L15 13L16 13L16 14L17 14L17 15L13 15L13 12L12 12L12 13L9 13L9 11L11 11L11 10L12 10L12 9L11 9L11 8L10 8L10 7L11 7L11 6L12 6L12 8L13 8L13 6L14 6L14 8L16 8L16 10L18 10L18 9L17 9L17 8L19 8L19 12L20 12L20 14L22 14L22 15L21 15L21 19L22 19L22 20L20 20L20 21L19 21L19 23L20 23L20 25L22 25L22 27L21 27L21 26L19 26L19 27L18 27L18 24L17 24L17 25L16 25L16 26L17 26L17 27L16 27L16 29L18 29L18 28L20 28L20 29L23 29L23 28L22 28L22 27L23 27L23 25L25 25L25 24L27 24L27 26L28 26L28 27L27 27L27 28L26 28L26 29L28 29L28 27L29 27L29 26L28 26L28 25L29 25L29 24L28 24L28 22L26 22L26 23L25 23L25 21L27 21L27 20L23 20L23 19L25 19L25 18L24 18L24 17L25 17L25 16L26 16L26 15L27 15L27 16L28 16L28 15L29 15L29 12L28 12L28 11L27 11L27 10L29 10L29 9L28 9L28 8L26 8L26 11L25 11L25 12L22 12L22 13L21 13L21 12L20 12L20 10L22 10L22 9L25 9L25 8L22 8L22 9L20 9L20 8L21 8L21 4L20 4L20 3L18 3L18 1L20 1L20 0L18 0L18 1L17 1L17 0L16 0L16 1L15 1L15 0L12 0L12 1L11 1L11 2L9 2L9 1L10 1L10 0ZM14 2L14 3L16 3L16 4L17 4L17 5L16 5L16 6L15 6L15 7L16 7L16 8L17 8L17 7L18 7L18 6L19 6L19 7L20 7L20 6L19 6L19 5L20 5L20 4L18 4L18 3L17 3L17 2ZM12 3L12 4L9 4L9 5L10 5L10 6L9 6L9 7L10 7L10 6L11 6L11 5L12 5L12 6L13 6L13 3ZM17 5L17 6L16 6L16 7L17 7L17 6L18 6L18 5ZM0 8L0 9L2 9L2 8ZM8 8L8 10L7 10L7 11L6 11L6 12L7 12L7 13L6 13L6 14L8 14L8 12L7 12L7 11L9 11L9 10L10 10L10 8ZM14 9L14 10L15 10L15 9ZM26 12L26 13L22 13L22 14L27 14L27 12ZM10 14L10 15L8 15L8 16L7 16L7 17L6 17L6 18L7 18L7 19L6 19L6 20L7 20L7 19L8 19L8 16L10 16L10 15L11 15L11 16L12 16L12 17L9 17L9 19L10 19L10 18L11 18L11 19L12 19L12 20L13 20L13 21L14 21L14 20L15 20L15 19L17 19L17 18L18 18L18 17L19 17L19 16L18 16L18 17L17 17L17 16L15 16L15 17L13 17L13 16L12 16L12 14ZM22 15L22 19L23 19L23 15ZM24 15L24 16L25 16L25 15ZM16 17L16 18L17 18L17 17ZM26 17L26 19L29 19L29 18L27 18L27 17ZM0 18L0 19L1 19L1 18ZM13 18L13 20L14 20L14 18ZM0 20L0 21L1 21L1 20ZM9 20L9 23L11 23L11 21L10 21L10 20ZM28 20L28 21L29 21L29 20ZM16 21L16 23L17 23L17 22L18 22L18 21ZM21 21L21 24L24 24L24 21ZM22 22L22 23L23 23L23 22ZM10 26L10 27L11 27L11 26ZM24 26L24 29L25 29L25 26ZM20 27L20 28L21 28L21 27ZM0 0L0 7L7 7L7 0ZM1 1L1 6L6 6L6 1ZM2 2L2 5L5 5L5 2ZM22 0L22 7L29 7L29 0ZM23 1L23 6L28 6L28 1ZM24 2L24 5L27 5L27 2ZM0 22L0 29L7 29L7 22ZM1 23L1 28L6 28L6 23ZM2 24L2 27L5 27L5 24Z" fill="#000000"/></g></g></svg>
