<?xml version="1.0" encoding="UTF-8"?>
<svg xmlns="http://www.w3.org/2000/svg" version="1.1" width="200" height="200" viewBox="0 0 200 200"><rect x="0" y="0" width="200" height="200" fill="#ffffff"/><g transform="scale(6.897)"><g transform="translate(0,0)"><path fill-rule="evenodd" d="M8 0L8 4L9 4L9 5L8 5L8 7L9 7L9 6L10 6L10 9L11 9L11 8L12 8L12 9L13 9L13 10L14 10L14 11L15 11L15 12L13 12L13 11L12 11L12 12L11 12L11 13L10 13L10 15L9 15L9 14L8 14L8 13L7 13L7 12L8 12L8 10L9 10L9 12L10 12L10 11L11 11L11 10L9 10L9 9L7 9L7 8L4 8L4 9L7 9L7 10L4 10L4 11L3 11L3 9L2 9L2 8L0 8L0 9L1 9L1 10L0 10L0 13L1 13L1 14L0 14L0 18L2 18L2 20L0 20L0 21L8 21L8 22L9 22L9 23L8 23L8 25L9 25L9 26L10 26L10 24L12 24L12 25L13 25L13 26L15 26L15 27L14 27L14 28L13 28L13 27L12 27L12 28L11 28L11 27L10 27L10 28L11 28L11 29L12 29L12 28L13 28L13 29L15 29L15 28L16 28L16 29L18 29L18 28L20 28L20 29L25 29L25 28L26 28L26 27L27 27L27 29L28 29L28 28L29 28L29 25L28 25L28 24L26 24L26 23L25 23L25 22L27 22L27 21L26 21L26 20L23 20L23 19L24 19L24 18L25 18L25 19L27 19L27 17L22 17L22 18L21 18L21 20L20 20L20 19L19 19L19 22L17 22L17 21L18 21L18 19L16 19L16 17L18 17L18 16L19 16L19 17L21 17L21 16L19 16L19 15L16 15L16 14L17 14L17 13L18 13L18 12L19 12L19 13L20 13L20 11L19 11L19 9L20 9L20 8L21 8L21 6L20 6L20 5L21 5L21 4L20 4L20 5L16 5L16 2L14 2L14 0L13 0L13 1L11 1L11 2L12 2L12 5L14 5L14 8L15 8L15 5L16 5L16 9L13 9L13 8L12 8L12 7L13 7L13 6L12 6L12 7L11 7L11 3L10 3L10 2L9 2L9 0ZM15 0L15 1L16 1L16 0ZM18 0L18 1L19 1L19 2L17 2L17 3L18 3L18 4L19 4L19 2L21 2L21 1L19 1L19 0ZM13 2L13 3L14 3L14 2ZM14 4L14 5L15 5L15 4ZM17 6L17 7L18 7L18 9L16 9L16 11L18 11L18 9L19 9L19 8L20 8L20 6L19 6L19 7L18 7L18 6ZM23 8L23 9L22 9L22 10L21 10L21 11L23 11L23 12L24 12L24 11L23 11L23 10L27 10L27 13L22 13L22 12L21 12L21 13L22 13L22 14L20 14L20 15L22 15L22 14L23 14L23 16L24 16L24 15L25 15L25 14L27 14L27 13L29 13L29 8L25 8L25 9L24 9L24 8ZM1 10L1 12L2 12L2 13L3 13L3 15L1 15L1 16L2 16L2 17L3 17L3 16L4 16L4 17L5 17L5 18L8 18L8 17L10 17L10 19L11 19L11 20L8 20L8 19L5 19L5 20L8 20L8 21L9 21L9 22L10 22L10 21L11 21L11 22L12 22L12 21L13 21L13 22L15 22L15 21L16 21L16 19L15 19L15 18L13 18L13 17L12 17L12 16L13 16L13 15L12 15L12 16L8 16L8 17L6 17L6 16L7 16L7 15L8 15L8 14L7 14L7 13L6 13L6 14L5 14L5 12L2 12L2 10ZM6 11L6 12L7 12L7 11ZM12 12L12 13L11 13L11 14L12 14L12 13L13 13L13 14L14 14L14 13L13 13L13 12ZM15 12L15 13L17 13L17 12ZM6 14L6 15L7 15L7 14ZM28 14L28 16L29 16L29 14ZM4 15L4 16L5 16L5 15ZM14 15L14 17L16 17L16 15ZM3 18L3 20L4 20L4 18ZM28 18L28 19L29 19L29 18ZM12 19L12 20L11 20L11 21L12 21L12 20L13 20L13 21L15 21L15 19L14 19L14 20L13 20L13 19ZM21 21L21 24L24 24L24 21ZM16 22L16 23L14 23L14 25L17 25L17 27L16 27L16 28L17 28L17 27L18 27L18 25L19 25L19 26L20 26L20 27L22 27L22 26L23 26L23 28L25 28L25 26L28 26L28 25L24 25L24 26L23 26L23 25L22 25L22 26L20 26L20 25L19 25L19 23L18 23L18 25L17 25L17 22ZM22 22L22 23L23 23L23 22ZM28 22L28 23L29 23L29 22ZM9 23L9 24L10 24L10 23ZM12 23L12 24L13 24L13 23ZM8 27L8 29L9 29L9 27ZM0 0L0 7L7 7L7 0ZM1 1L1 6L6 6L6 1ZM2 2L2 5L5 5L5 2ZM22 0L22 7L29 7L29 0ZM23 1L23 6L28 6L28 1ZM24 2L24 5L27 5L27 2ZM0 22L0 29L7 29L7 22ZM1 23L1 28L6 28L6 23ZM2 24L2 27L5 27L5 24Z" fill="#000000"/></g></g></svg>
