<?xml version="1.0" encoding="UTF-8"?>
<svg xmlns="http://www.w3.org/2000/svg" version="1.1" width="200" height="200" viewBox="0 0 200 200"><rect x="0" y="0" width="200" height="200" fill="#ffffff"/><g transform="scale(8)"><g transform="translate(0,0)"><path fill-rule="evenodd" d="M8 0L8 1L9 1L9 2L8 2L8 5L9 5L9 4L11 4L11 5L10 5L10 10L8 10L8 9L9 9L9 8L8 8L8 9L7 9L7 8L6 8L6 9L4 9L4 8L0 8L0 10L1 10L1 11L0 11L0 13L1 13L1 11L2 11L2 14L1 14L1 15L0 15L0 16L1 16L1 15L2 15L2 17L4 17L4 15L5 15L5 12L6 12L6 13L7 13L7 14L6 14L6 15L7 15L7 14L8 14L8 16L6 16L6 17L8 17L8 18L10 18L10 20L12 20L12 19L11 19L11 18L10 18L10 17L11 17L11 16L12 16L12 17L15 17L15 15L16 15L16 18L14 18L14 20L13 20L13 21L14 21L14 20L16 20L16 21L15 21L15 22L14 22L14 23L9 23L9 22L11 22L11 21L8 21L8 25L9 25L9 24L10 24L10 25L13 25L13 24L14 24L14 23L15 23L15 22L16 22L16 23L20 23L20 24L17 24L17 25L21 25L21 23L22 23L22 25L23 25L23 23L24 23L24 25L25 25L25 23L24 23L24 22L25 22L25 21L21 21L21 17L22 17L22 19L23 19L23 20L24 20L24 19L25 19L25 17L24 17L24 16L22 16L22 15L20 15L20 16L19 16L19 14L20 14L20 13L22 13L22 12L23 12L23 15L24 15L24 14L25 14L25 11L23 11L23 10L22 10L22 9L23 9L23 8L20 8L20 9L18 9L18 8L17 8L17 6L16 6L16 5L17 5L17 2L15 2L15 1L17 1L17 0L12 0L12 1L11 1L11 0L10 0L10 1L9 1L9 0ZM13 1L13 2L11 2L11 4L12 4L12 3L13 3L13 4L14 4L14 5L12 5L12 6L11 6L11 8L12 8L12 6L13 6L13 10L14 10L14 9L16 9L16 10L15 10L15 12L14 12L14 13L13 13L13 14L12 14L12 16L14 16L14 15L13 15L13 14L16 14L16 15L17 15L17 16L18 16L18 14L19 14L19 12L22 12L22 10L20 10L20 11L19 11L19 10L18 10L18 9L17 9L17 8L16 8L16 6L15 6L15 7L14 7L14 5L15 5L15 4L16 4L16 3L14 3L14 1ZM8 6L8 7L9 7L9 6ZM24 8L24 9L25 9L25 8ZM6 9L6 10L3 10L3 13L4 13L4 11L6 11L6 12L7 12L7 11L6 11L6 10L7 10L7 9ZM11 9L11 10L12 10L12 9ZM11 11L11 13L10 13L10 14L11 14L11 13L12 13L12 12L13 12L13 11ZM18 11L18 12L19 12L19 11ZM16 12L16 13L17 13L17 12ZM8 13L8 14L9 14L9 13ZM9 15L9 16L8 16L8 17L9 17L9 16L11 16L11 15ZM17 17L17 20L20 20L20 17ZM23 17L23 19L24 19L24 17ZM18 18L18 19L19 19L19 18ZM18 21L18 22L19 22L19 21ZM15 24L15 25L16 25L16 24ZM0 0L0 7L7 7L7 0ZM1 1L1 6L6 6L6 1ZM2 2L2 5L5 5L5 2ZM18 0L18 7L25 7L25 0ZM19 1L19 6L24 6L24 1ZM20 2L20 5L23 5L23 2ZM0 18L0 25L7 25L7 18ZM1 19L1 24L6 24L6 19ZM2 20L2 23L5 23L5 20Z" fill="#000000"/></g></g></svg>
