<?xml version="1.0" encoding="UTF-8"?>
<svg xmlns="http://www.w3.org/2000/svg" version="1.1" width="200" height="200" viewBox="0 0 200 200"><rect x="0" y="0" width="200" height="200" fill="#ffffff"/><g transform="scale(6.897)"><g transform="translate(0,0)"><path fill-rule="evenodd" d="M9 0L9 1L8 1L8 2L9 2L9 3L8 3L8 4L10 4L10 7L11 7L11 4L12 4L12 5L13 5L13 4L17 4L17 5L14 5L14 8L13 8L13 6L12 6L12 9L16 9L16 10L11 10L11 11L10 11L10 9L11 9L11 8L6 8L6 9L7 9L7 10L6 10L6 11L9 11L9 13L10 13L10 15L9 15L9 14L8 14L8 15L7 15L7 14L6 14L6 13L8 13L8 12L6 12L6 13L2 13L2 14L4 14L4 15L7 15L7 16L6 16L6 17L5 17L5 16L3 16L3 15L0 15L0 21L1 21L1 17L3 17L3 18L2 18L2 19L3 19L3 18L4 18L4 17L5 17L5 19L4 19L4 20L2 20L2 21L5 21L5 20L6 20L6 21L7 21L7 20L6 20L6 19L8 19L8 18L6 18L6 17L7 17L7 16L8 16L8 17L9 17L9 16L10 16L10 17L11 17L11 16L10 16L10 15L11 15L11 13L12 13L12 14L13 14L13 15L12 15L12 17L13 17L13 16L14 16L14 17L16 17L16 18L15 18L15 19L14 19L14 20L15 20L15 21L12 21L12 19L13 19L13 18L11 18L11 20L10 20L10 18L9 18L9 20L8 20L8 23L9 23L9 21L12 21L12 22L13 22L13 23L12 23L12 25L13 25L13 24L14 24L14 25L16 25L16 26L15 26L15 27L14 27L14 28L15 28L15 29L16 29L16 27L18 27L18 28L17 28L17 29L18 29L18 28L19 28L19 29L20 29L20 28L21 28L21 27L22 27L22 28L23 28L23 29L24 29L24 28L26 28L26 27L25 27L25 26L23 26L23 27L22 27L22 26L20 26L20 25L25 25L25 21L27 21L27 22L26 22L26 23L27 23L27 22L28 22L28 20L29 20L29 19L28 19L28 20L24 20L24 18L25 18L25 19L27 19L27 18L28 18L28 16L25 16L25 13L27 13L27 14L26 14L26 15L27 15L27 14L28 14L28 13L29 13L29 12L28 12L28 10L29 10L29 9L28 9L28 8L27 8L27 9L26 9L26 8L25 8L25 9L24 9L24 8L23 8L23 9L22 9L22 8L21 8L21 9L18 9L18 8L20 8L20 7L21 7L21 6L20 6L20 7L19 7L19 5L21 5L21 4L20 4L20 3L19 3L19 4L18 4L18 3L15 3L15 2L19 2L19 1L20 1L20 2L21 2L21 0L19 0L19 1L17 1L17 0L16 0L16 1L15 1L15 0L14 0L14 1L11 1L11 2L10 2L10 0ZM12 2L12 4L13 4L13 3L14 3L14 2ZM10 3L10 4L11 4L11 3ZM8 5L8 7L9 7L9 5ZM17 5L17 7L16 7L16 6L15 6L15 7L16 7L16 9L17 9L17 8L18 8L18 5ZM0 8L0 9L4 9L4 10L3 10L3 11L2 11L2 12L3 12L3 11L5 11L5 8ZM21 9L21 10L22 10L22 11L23 11L23 10L22 10L22 9ZM0 10L0 11L1 11L1 10ZM17 10L17 12L19 12L19 13L20 13L20 10L19 10L19 11L18 11L18 10ZM24 10L24 12L21 12L21 14L22 14L22 15L20 15L20 14L19 14L19 15L20 15L20 16L18 16L18 13L17 13L17 14L16 14L16 13L15 13L15 12L16 12L16 11L12 11L12 13L14 13L14 14L16 14L16 15L17 15L17 16L18 16L18 17L17 17L17 18L19 18L19 19L17 19L17 20L16 20L16 21L15 21L15 22L16 22L16 21L17 21L17 23L14 23L14 24L18 24L18 25L17 25L17 26L18 26L18 27L19 27L19 28L20 28L20 26L18 26L18 25L20 25L20 24L18 24L18 23L19 23L19 22L18 22L18 21L20 21L20 19L21 19L21 18L19 18L19 17L20 17L20 16L22 16L22 17L23 17L23 16L22 16L22 15L24 15L24 14L22 14L22 13L25 13L25 12L27 12L27 13L28 13L28 12L27 12L27 10L26 10L26 11L25 11L25 10ZM10 12L10 13L11 13L11 12ZM8 15L8 16L9 16L9 15ZM14 15L14 16L15 16L15 15ZM24 16L24 17L25 17L25 18L27 18L27 17L25 17L25 16ZM22 18L22 20L23 20L23 18ZM17 20L17 21L18 21L18 20ZM21 21L21 24L24 24L24 21ZM22 22L22 23L23 23L23 22ZM28 23L28 24L29 24L29 23ZM8 24L8 29L9 29L9 27L10 27L10 26L9 26L9 25L11 25L11 24ZM26 24L26 25L27 25L27 28L28 28L28 26L29 26L29 25L27 25L27 24ZM11 26L11 29L12 29L12 27L13 27L13 26ZM0 0L0 7L7 7L7 0ZM1 1L1 6L6 6L6 1ZM2 2L2 5L5 5L5 2ZM22 0L22 7L29 7L29 0ZM23 1L23 6L28 6L28 1ZM24 2L24 5L27 5L27 2ZM0 22L0 29L7 29L7 22ZM1 23L1 28L6 28L6 23ZM2 24L2 27L5 27L5 24Z" fill="#000000"/></g></g></svg>
