<?xml version="1.0" encoding="UTF-8"?>
<svg xmlns="http://www.w3.org/2000/svg" version="1.1" width="200" height="200" viewBox="0 0 200 200"><rect x="0" y="0" width="200" height="200" fill="#ffffff"/><g transform="scale(8)"><g transform="translate(0,0)"><path fill-rule="evenodd" d="M8 0L8 4L10 4L10 3L11 3L11 4L12 4L12 2L11 2L11 0ZM12 0L12 1L13 1L13 0ZM16 0L16 1L14 1L14 2L13 2L13 3L14 3L14 2L16 2L16 5L15 5L15 6L14 6L14 8L13 8L13 5L11 5L11 6L10 6L10 7L9 7L9 5L8 5L8 7L9 7L9 8L10 8L10 7L11 7L11 6L12 6L12 8L11 8L11 9L8 9L8 10L11 10L11 11L10 11L10 13L11 13L11 12L12 12L12 13L13 13L13 12L12 12L12 11L14 11L14 13L17 13L17 16L16 16L16 18L14 18L14 21L13 21L13 20L12 20L12 19L13 19L13 17L12 17L12 16L13 16L13 15L14 15L14 14L13 14L13 15L12 15L12 16L11 16L11 15L10 15L10 16L9 16L9 14L6 14L6 13L7 13L7 12L6 12L6 11L7 11L7 10L6 10L6 9L7 9L7 8L4 8L4 10L6 10L6 11L4 11L4 12L3 12L3 10L1 10L1 9L2 9L2 8L0 8L0 12L1 12L1 11L2 11L2 12L3 12L3 13L4 13L4 12L6 12L6 13L5 13L5 14L2 14L2 15L8 15L8 18L9 18L9 19L8 19L8 21L9 21L9 22L10 22L10 23L8 23L8 25L10 25L10 24L11 24L11 25L15 25L15 24L16 24L16 22L17 22L17 25L19 25L19 24L21 24L21 25L23 25L23 24L24 24L24 25L25 25L25 23L24 23L24 22L25 22L25 20L24 20L24 19L25 19L25 18L23 18L23 19L21 19L21 17L23 17L23 16L24 16L24 17L25 17L25 15L23 15L23 14L22 14L22 15L23 15L23 16L21 16L21 15L20 15L20 14L19 14L19 13L17 13L17 12L20 12L20 11L21 11L21 12L23 12L23 13L25 13L25 11L24 11L24 12L23 12L23 11L22 11L22 10L19 10L19 9L20 9L20 8L19 8L19 9L18 9L18 10L19 10L19 11L16 11L16 9L15 9L15 11L14 11L14 8L15 8L15 6L16 6L16 7L17 7L17 2L16 2L16 1L17 1L17 0ZM9 2L9 3L10 3L10 2ZM12 8L12 9L11 9L11 10L12 10L12 9L13 9L13 8ZM21 8L21 9L25 9L25 8ZM8 12L8 13L9 13L9 12ZM0 13L0 14L1 14L1 13ZM18 15L18 16L20 16L20 15ZM0 16L0 17L3 17L3 16ZM5 16L5 17L7 17L7 16ZM10 17L10 18L12 18L12 17ZM17 17L17 20L20 20L20 17ZM18 18L18 19L19 19L19 18ZM9 19L9 20L11 20L11 21L10 21L10 22L11 22L11 24L12 24L12 23L13 23L13 24L15 24L15 23L13 23L13 21L12 21L12 20L11 20L11 19ZM15 19L15 21L14 21L14 22L16 22L16 19ZM21 20L21 21L18 21L18 22L20 22L20 23L23 23L23 22L22 22L22 20ZM23 20L23 21L24 21L24 20ZM18 23L18 24L19 24L19 23ZM0 0L0 7L7 7L7 0ZM1 1L1 6L6 6L6 1ZM2 2L2 5L5 5L5 2ZM18 0L18 7L25 7L25 0ZM19 1L19 6L24 6L24 1ZM20 2L20 5L23 5L23 2ZM0 18L0 25L7 25L7 18ZM1 19L1 24L6 24L6 19ZM2 20L2 23L5 23L5 20Z" fill="#000000"/></g></g></svg>
