<?xml version="1.0" encoding="UTF-8"?>
<svg xmlns="http://www.w3.org/2000/svg" version="1.1" width="200" height="200" viewBox="0 0 200 200"><rect x="0" y="0" width="200" height="200" fill="#ffffff"/><g transform="scale(5.405)"><g transform="translate(0,0)"><path fill-rule="evenodd" d="M9 0L9 1L8 1L8 2L9 2L9 3L8 3L8 4L10 4L10 7L11 7L11 4L12 4L12 5L13 5L13 6L12 6L12 9L13 9L13 8L14 8L14 9L15 9L15 10L17 10L17 11L16 11L16 12L17 12L17 14L20 14L20 17L18 17L18 16L17 16L17 15L16 15L16 13L12 13L12 11L13 11L13 10L6 10L6 11L11 11L11 12L9 12L9 13L8 13L8 12L6 12L6 13L5 13L5 10L4 10L4 9L5 9L5 8L0 8L0 14L1 14L1 13L3 13L3 11L4 11L4 15L2 15L2 16L1 16L1 15L0 15L0 16L1 16L1 18L0 18L0 19L1 19L1 20L2 20L2 22L3 22L3 24L2 24L2 23L1 23L1 24L0 24L0 29L1 29L1 26L3 26L3 28L2 28L2 29L3 29L3 28L4 28L4 29L8 29L8 31L9 31L9 32L8 32L8 37L9 37L9 36L10 36L10 37L12 37L12 35L13 35L13 34L11 34L11 33L9 33L9 32L10 32L10 31L9 31L9 30L10 30L10 29L12 29L12 30L13 30L13 31L12 31L12 33L13 33L13 32L14 32L14 33L15 33L15 32L14 32L14 31L16 31L16 32L17 32L17 33L16 33L16 34L15 34L15 35L14 35L14 36L15 36L15 37L18 37L18 36L19 36L19 34L20 34L20 35L21 35L21 36L22 36L22 37L23 37L23 36L22 36L22 35L23 35L23 34L22 34L22 33L25 33L25 34L24 34L24 37L26 37L26 36L25 36L25 35L27 35L27 36L29 36L29 34L28 34L28 35L27 35L27 34L26 34L26 33L30 33L30 34L31 34L31 35L30 35L30 37L31 37L31 35L32 35L32 34L33 34L33 31L34 31L34 30L35 30L35 32L34 32L34 33L35 33L35 35L36 35L36 36L34 36L34 37L37 37L37 32L36 32L36 31L37 31L37 26L35 26L35 24L36 24L36 25L37 25L37 22L36 22L36 23L35 23L35 22L33 22L33 23L35 23L35 24L32 24L32 25L31 25L31 23L32 23L32 21L33 21L33 20L32 20L32 19L31 19L31 18L32 18L32 17L33 17L33 19L34 19L34 17L36 17L36 16L34 16L34 15L37 15L37 14L35 14L35 13L37 13L37 10L35 10L35 9L36 9L36 8L35 8L35 9L34 9L34 8L33 8L33 9L34 9L34 10L35 10L35 12L32 12L32 13L31 13L31 10L32 10L32 11L33 11L33 10L32 10L32 8L31 8L31 10L30 10L30 8L29 8L29 11L28 11L28 10L27 10L27 9L28 9L28 7L29 7L29 6L28 6L28 5L29 5L29 4L28 4L28 2L29 2L29 0L28 0L28 1L26 1L26 2L27 2L27 3L24 3L24 4L23 4L23 1L24 1L24 2L25 2L25 1L24 1L24 0L23 0L23 1L22 1L22 0L21 0L21 1L20 1L20 0L18 0L18 3L17 3L17 2L16 2L16 4L12 4L12 2L13 2L13 1L11 1L11 2L10 2L10 0ZM15 0L15 1L17 1L17 0ZM19 1L19 2L20 2L20 1ZM14 2L14 3L15 3L15 2ZM10 3L10 4L11 4L11 3ZM18 3L18 4L16 4L16 5L18 5L18 4L19 4L19 3ZM20 3L20 4L22 4L22 3ZM24 4L24 5L19 5L19 7L18 7L18 6L17 6L17 7L16 7L16 6L15 6L15 7L14 7L14 6L13 6L13 7L14 7L14 8L15 8L15 7L16 7L16 9L17 9L17 8L18 8L18 9L20 9L20 6L21 6L21 7L22 7L22 6L23 6L23 9L22 9L22 8L21 8L21 9L22 9L22 10L23 10L23 13L24 13L24 14L21 14L21 15L22 15L22 16L21 16L21 17L22 17L22 16L23 16L23 17L24 17L24 18L23 18L23 19L24 19L24 20L26 20L26 19L27 19L27 18L28 18L28 19L29 19L29 20L27 20L27 21L26 21L26 22L25 22L25 21L24 21L24 22L23 22L23 21L22 21L22 20L21 20L21 19L20 19L20 18L16 18L16 17L14 17L14 16L15 16L15 15L14 15L14 16L13 16L13 17L12 17L12 15L13 15L13 14L12 14L12 13L11 13L11 14L10 14L10 13L9 13L9 14L7 14L7 13L6 13L6 14L7 14L7 15L6 15L6 16L8 16L8 17L5 17L5 18L4 18L4 16L5 16L5 15L4 15L4 16L2 16L2 17L3 17L3 18L4 18L4 19L5 19L5 20L7 20L7 19L6 19L6 18L8 18L8 17L10 17L10 16L11 16L11 18L10 18L10 19L9 19L9 21L5 21L5 22L4 22L4 20L3 20L3 22L4 22L4 23L6 23L6 24L7 24L7 23L8 23L8 22L9 22L9 21L10 21L10 22L11 22L11 23L9 23L9 25L6 25L6 26L4 26L4 27L5 27L5 28L11 28L11 27L9 27L9 25L10 25L10 26L13 26L13 27L12 27L12 29L15 29L15 30L16 30L16 29L17 29L17 28L18 28L18 29L19 29L19 28L20 28L20 29L22 29L22 32L21 32L21 31L20 31L20 30L19 30L19 31L18 31L18 30L17 30L17 32L19 32L19 33L22 33L22 32L26 32L26 31L27 31L27 32L28 32L28 30L27 30L27 29L28 29L28 27L27 27L27 26L28 26L28 25L29 25L29 24L27 24L27 25L24 25L24 24L23 24L23 23L24 23L24 22L25 22L25 24L26 24L26 23L27 23L27 22L28 22L28 23L29 23L29 22L30 22L30 21L29 21L29 20L30 20L30 18L31 18L31 17L32 17L32 15L34 15L34 13L32 13L32 15L30 15L30 14L31 14L31 13L30 13L30 14L29 14L29 15L28 15L28 16L27 16L27 18L26 18L26 17L25 17L25 16L26 16L26 15L27 15L27 14L28 14L28 13L26 13L26 14L25 14L25 13L24 13L24 12L27 12L27 10L26 10L26 9L25 9L25 10L23 10L23 9L24 9L24 5L25 5L25 8L26 8L26 6L27 6L27 7L28 7L28 6L27 6L27 5L28 5L28 4L26 4L26 5L25 5L25 4ZM8 5L8 7L9 7L9 5ZM6 8L6 9L11 9L11 8ZM2 9L2 10L1 10L1 12L2 12L2 10L3 10L3 9ZM18 10L18 11L17 11L17 12L18 12L18 13L20 13L20 12L21 12L21 13L22 13L22 12L21 12L21 11L20 11L20 10ZM14 11L14 12L15 12L15 11ZM19 11L19 12L20 12L20 11ZM24 14L24 15L23 15L23 16L25 16L25 14ZM9 15L9 16L10 16L10 15ZM29 15L29 16L30 16L30 17L31 17L31 16L30 16L30 15ZM28 17L28 18L29 18L29 17ZM11 18L11 19L10 19L10 21L12 21L12 22L13 22L13 23L12 23L12 25L13 25L13 24L14 24L14 25L16 25L16 26L15 26L15 27L14 27L14 28L17 28L17 27L16 27L16 26L17 26L17 25L18 25L18 26L20 26L20 27L21 27L21 28L22 28L22 27L23 27L23 26L24 26L24 25L23 25L23 24L22 24L22 23L23 23L23 22L22 22L22 23L21 23L21 24L22 24L22 25L21 25L21 26L20 26L20 25L18 25L18 24L17 24L17 23L18 23L18 22L19 22L19 21L20 21L20 22L21 22L21 21L20 21L20 20L19 20L19 21L18 21L18 20L16 20L16 18L15 18L15 19L14 19L14 20L15 20L15 21L12 21L12 19L13 19L13 18ZM25 18L25 19L26 19L26 18ZM35 18L35 19L36 19L36 21L37 21L37 18ZM34 20L34 21L35 21L35 20ZM15 21L15 22L16 22L16 21ZM28 21L28 22L29 22L29 21ZM6 22L6 23L7 23L7 22ZM14 23L14 24L15 24L15 23ZM4 24L4 25L5 25L5 24ZM30 25L30 26L31 26L31 27L32 27L32 28L35 28L35 27L34 27L34 25L32 25L32 26L31 26L31 25ZM6 26L6 27L7 27L7 26ZM25 26L25 27L24 27L24 29L23 29L23 30L24 30L24 31L25 31L25 30L26 30L26 29L27 29L27 27L26 27L26 26ZM18 27L18 28L19 28L19 27ZM25 27L25 28L26 28L26 27ZM29 27L29 28L30 28L30 27ZM24 29L24 30L25 30L25 29ZM29 29L29 32L32 32L32 29ZM33 29L33 30L34 30L34 29ZM35 29L35 30L36 30L36 29ZM30 30L30 31L31 31L31 30ZM19 31L19 32L20 32L20 31ZM35 32L35 33L36 33L36 32ZM17 33L17 34L16 34L16 35L15 35L15 36L16 36L16 35L17 35L17 36L18 36L18 33ZM9 34L9 35L10 35L10 34ZM21 34L21 35L22 35L22 34ZM0 0L0 7L7 7L7 0ZM1 1L1 6L6 6L6 1ZM2 2L2 5L5 5L5 2ZM30 0L30 7L37 7L37 0ZM31 1L31 6L36 6L36 1ZM32 2L32 5L35 5L35 2ZM0 30L0 37L7 37L7 30ZM1 31L1 36L6 36L6 31ZM2 32L2 35L5 35L5 32Z" fill="#000000"/></g></g></svg>
