<?xml version="1.0" encoding="UTF-8"?>
<svg xmlns="http://www.w3.org/2000/svg" version="1.1" width="200" height="200" viewBox="0 0 200 200"><rect x="0" y="0" width="200" height="200" fill="#ffffff"/><g transform="scale(6.897)"><g transform="translate(0,0)"><path fill-rule="evenodd" d="M8 0L8 1L9 1L9 2L8 2L8 5L9 5L9 4L11 4L11 5L10 5L10 10L6 10L6 9L7 9L7 8L6 8L6 9L4 9L4 8L0 8L0 9L3 9L3 10L2 10L2 11L0 11L0 14L1 14L1 15L0 15L0 16L1 16L1 17L2 17L2 20L1 20L1 21L2 21L2 20L3 20L3 21L4 21L4 20L6 20L6 21L8 21L8 22L10 22L10 23L11 23L11 24L10 24L10 25L11 25L11 26L9 26L9 25L8 25L8 29L12 29L12 28L14 28L14 27L15 27L15 28L16 28L16 27L15 27L15 26L17 26L17 27L18 27L18 29L24 29L24 26L25 26L25 28L26 28L26 29L28 29L28 27L29 27L29 25L28 25L28 24L26 24L26 22L25 22L25 18L26 18L26 21L29 21L29 20L27 20L27 18L29 18L29 17L27 17L27 18L26 18L26 16L25 16L25 14L24 14L24 15L23 15L23 13L22 13L22 11L21 11L21 10L25 10L25 11L24 11L24 12L25 12L25 13L26 13L26 15L27 15L27 16L29 16L29 14L28 14L28 13L29 13L29 11L27 11L27 10L29 10L29 8L28 8L28 9L27 9L27 8L24 8L24 9L22 9L22 8L20 8L20 7L21 7L21 5L20 5L20 4L18 4L18 3L17 3L17 1L16 1L16 0L12 0L12 1L11 1L11 0L10 0L10 1L9 1L9 0ZM19 0L19 1L21 1L21 0ZM14 1L14 2L11 2L11 4L12 4L12 3L13 3L13 5L12 5L12 6L11 6L11 8L12 8L12 6L13 6L13 8L14 8L14 9L15 9L15 7L16 7L16 6L15 6L15 5L16 5L16 4L17 4L17 3L16 3L16 1ZM19 2L19 3L21 3L21 2ZM14 3L14 5L13 5L13 6L14 6L14 7L15 7L15 6L14 6L14 5L15 5L15 4L16 4L16 3ZM8 6L8 7L9 7L9 6ZM17 6L17 7L18 7L18 6ZM19 6L19 7L20 7L20 6ZM8 8L8 9L9 9L9 8ZM11 9L11 10L12 10L12 9ZM16 9L16 10L14 10L14 11L11 11L11 13L10 13L10 14L8 14L8 12L9 12L9 11L8 11L8 12L7 12L7 11L6 11L6 10L4 10L4 11L2 11L2 13L3 13L3 15L4 15L4 13L5 13L5 16L2 16L2 15L1 15L1 16L2 16L2 17L4 17L4 19L3 19L3 20L4 20L4 19L6 19L6 20L7 20L7 19L6 19L6 18L9 18L9 19L8 19L8 20L9 20L9 19L10 19L10 20L11 20L11 21L10 21L10 22L11 22L11 23L14 23L14 22L15 22L15 24L12 24L12 26L11 26L11 27L10 27L10 28L12 28L12 26L13 26L13 27L14 27L14 26L15 26L15 24L16 24L16 25L17 25L17 24L18 24L18 25L19 25L19 26L18 26L18 27L19 27L19 28L20 28L20 26L21 26L21 28L22 28L22 27L23 27L23 25L22 25L22 26L21 26L21 25L20 25L20 23L19 23L19 24L18 24L18 22L20 22L20 21L17 21L17 19L16 19L16 20L15 20L15 21L13 21L13 18L14 18L14 15L15 15L15 17L16 17L16 16L17 16L17 18L18 18L18 17L19 17L19 20L23 20L23 19L21 19L21 18L22 18L22 17L24 17L24 18L25 18L25 17L24 17L24 16L23 16L23 15L22 15L22 13L21 13L21 11L20 11L20 10L18 10L18 9ZM16 10L16 12L14 12L14 14L13 14L13 12L12 12L12 13L11 13L11 14L10 14L10 15L9 15L9 16L8 16L8 17L9 17L9 16L10 16L10 15L11 15L11 16L12 16L12 17L13 17L13 16L12 16L12 14L13 14L13 15L14 15L14 14L16 14L16 15L17 15L17 14L18 14L18 15L21 15L21 16L20 16L20 18L21 18L21 17L22 17L22 15L21 15L21 13L19 13L19 12L20 12L20 11L18 11L18 10ZM5 11L5 13L7 13L7 12L6 12L6 11ZM17 11L17 12L18 12L18 11ZM26 11L26 12L27 12L27 11ZM3 12L3 13L4 13L4 12ZM16 13L16 14L17 14L17 13ZM6 14L6 15L7 15L7 14ZM6 16L6 17L5 17L5 18L6 18L6 17L7 17L7 16ZM10 17L10 19L11 19L11 20L12 20L12 19L11 19L11 17ZM0 18L0 19L1 19L1 18ZM16 21L16 24L17 24L17 21ZM21 21L21 24L24 24L24 21ZM22 22L22 23L23 23L23 22ZM27 22L27 23L28 23L28 22ZM25 24L25 26L26 26L26 28L27 28L27 27L28 27L28 25L27 25L27 26L26 26L26 24ZM13 25L13 26L14 26L14 25ZM0 0L0 7L7 7L7 0ZM1 1L1 6L6 6L6 1ZM2 2L2 5L5 5L5 2ZM22 0L22 7L29 7L29 0ZM23 1L23 6L28 6L28 1ZM24 2L24 5L27 5L27 2ZM0 22L0 29L7 29L7 22ZM1 23L1 28L6 28L6 23ZM2 24L2 27L5 27L5 24Z" fill="#000000"/></g></g></svg>
