<?xml version="1.0" encoding="UTF-8"?>
<svg xmlns="http://www.w3.org/2000/svg" version="1.1" width="200" height="200" viewBox="0 0 200 200"><rect x="0" y="0" width="200" height="200" fill="#ffffff"/><g transform="scale(6.897)"><g transform="translate(0,0)"><path fill-rule="evenodd" d="M8 0L8 4L9 4L9 5L8 5L8 7L9 7L9 6L10 6L10 9L11 9L11 8L12 8L12 9L13 9L13 10L15 10L15 11L14 11L14 12L13 12L13 11L12 11L12 12L11 12L11 13L10 13L10 15L11 15L11 16L12 16L12 17L13 17L13 18L15 18L15 19L14 19L14 20L13 20L13 19L12 19L12 20L10 20L10 22L9 22L9 21L8 21L8 22L9 22L9 23L8 23L8 25L9 25L9 27L8 27L8 29L9 29L9 27L10 27L10 25L11 25L11 24L12 24L12 25L13 25L13 26L15 26L15 27L14 27L14 28L13 28L13 27L12 27L12 28L11 28L11 29L12 29L12 28L13 28L13 29L15 29L15 28L16 28L16 29L19 29L19 28L18 28L18 27L21 27L21 26L22 26L22 28L24 28L24 27L23 27L23 26L22 26L22 25L24 25L24 26L27 26L27 28L26 28L26 27L25 27L25 29L28 29L28 28L29 28L29 25L28 25L28 24L29 24L29 22L28 22L28 24L27 24L27 25L26 25L26 24L25 24L25 23L27 23L27 21L25 21L25 19L23 19L23 18L26 18L26 19L27 19L27 18L28 18L28 19L29 19L29 18L28 18L28 17L25 17L25 15L26 15L26 14L27 14L27 13L29 13L29 8L25 8L25 9L24 9L24 8L23 8L23 10L22 10L22 9L21 9L21 8L19 8L19 6L20 6L20 7L21 7L21 6L20 6L20 5L21 5L21 4L20 4L20 5L17 5L17 3L18 3L18 4L19 4L19 2L21 2L21 1L19 1L19 0L18 0L18 2L17 2L17 3L16 3L16 2L15 2L15 4L14 4L14 5L16 5L16 9L14 9L14 7L15 7L15 6L14 6L14 7L13 7L13 6L12 6L12 7L11 7L11 3L10 3L10 2L9 2L9 0ZM13 0L13 1L11 1L11 2L12 2L12 5L13 5L13 1L17 1L17 0ZM17 6L17 7L18 7L18 6ZM12 7L12 8L13 8L13 7ZM0 8L0 10L1 10L1 9L2 9L2 11L0 11L0 15L1 15L1 17L0 17L0 18L1 18L1 17L3 17L3 19L2 19L2 20L0 20L0 21L3 21L3 19L5 19L5 20L6 20L6 21L7 21L7 20L8 20L8 18L6 18L6 19L5 19L5 16L4 16L4 17L3 17L3 16L2 16L2 15L5 15L5 14L4 14L4 13L7 13L7 14L6 14L6 15L8 15L8 14L9 14L9 13L8 13L8 12L6 12L6 11L8 11L8 10L9 10L9 12L10 12L10 11L11 11L11 10L9 10L9 9L8 9L8 10L6 10L6 9L7 9L7 8L4 8L4 9L2 9L2 8ZM18 8L18 9L17 9L17 10L16 10L16 11L15 11L15 13L13 13L13 12L12 12L12 13L11 13L11 14L12 14L12 13L13 13L13 14L15 14L15 13L16 13L16 11L17 11L17 10L18 10L18 9L19 9L19 8ZM20 9L20 10L19 10L19 11L18 11L18 13L17 13L17 15L16 15L16 16L15 16L15 15L14 15L14 17L17 17L17 18L18 18L18 19L19 19L19 20L18 20L18 21L17 21L17 22L16 22L16 23L14 23L14 25L16 25L16 24L17 24L17 22L18 22L18 21L19 21L19 23L20 23L20 20L21 20L21 19L20 19L20 18L22 18L22 17L24 17L24 15L25 15L25 14L24 14L24 15L23 15L23 13L24 13L24 11L25 11L25 13L27 13L27 10L28 10L28 9L25 9L25 10L24 10L24 11L23 11L23 12L22 12L22 10L21 10L21 9ZM3 10L3 11L2 11L2 12L1 12L1 14L3 14L3 13L4 13L4 12L5 12L5 11L6 11L6 10ZM25 10L25 11L26 11L26 10ZM3 11L3 12L4 12L4 11ZM20 11L20 12L19 12L19 13L18 13L18 15L17 15L17 17L18 17L18 18L20 18L20 17L21 17L21 16L23 16L23 15L22 15L22 12L21 12L21 11ZM20 12L20 14L19 14L19 15L18 15L18 17L20 17L20 16L19 16L19 15L20 15L20 14L21 14L21 12ZM28 14L28 15L27 15L27 16L28 16L28 15L29 15L29 14ZM12 15L12 16L13 16L13 15ZM6 16L6 17L9 17L9 16ZM10 17L10 18L9 18L9 19L11 19L11 17ZM6 19L6 20L7 20L7 19ZM15 19L15 21L13 21L13 20L12 20L12 21L11 21L11 22L10 22L10 23L11 23L11 22L12 22L12 21L13 21L13 22L15 22L15 21L16 21L16 19ZM28 20L28 21L29 21L29 20ZM21 21L21 24L24 24L24 21ZM22 22L22 23L23 23L23 22ZM12 23L12 24L13 24L13 23ZM9 24L9 25L10 25L10 24ZM17 25L17 26L16 26L16 28L17 28L17 26L21 26L21 25ZM27 25L27 26L28 26L28 25ZM20 28L20 29L21 29L21 28ZM0 0L0 7L7 7L7 0ZM1 1L1 6L6 6L6 1ZM2 2L2 5L5 5L5 2ZM22 0L22 7L29 7L29 0ZM23 1L23 6L28 6L28 1ZM24 2L24 5L27 5L27 2ZM0 22L0 29L7 29L7 22ZM1 23L1 28L6 28L6 23ZM2 24L2 27L5 27L5 24Z" fill="#000000"/></g></g></svg>
