<?xml version="1.0" encoding="UTF-8"?>
<svg xmlns="http://www.w3.org/2000/svg" version="1.1" width="200" height="200" viewBox="0 0 200 200"><rect x="0" y="0" width="200" height="200" fill="#ffffff"/><g transform="scale(6.897)"><g transform="translate(0,0)"><path fill-rule="evenodd" d="M9 0L9 1L8 1L8 3L9 3L9 4L8 4L8 8L6 8L6 9L7 9L7 10L6 10L6 11L7 11L7 12L6 12L6 13L7 13L7 14L5 14L5 13L4 13L4 14L2 14L2 13L3 13L3 11L4 11L4 10L5 10L5 9L4 9L4 8L3 8L3 9L2 9L2 8L0 8L0 11L1 11L1 12L0 12L0 17L2 17L2 16L3 16L3 17L4 17L4 18L2 18L2 19L3 19L3 20L2 20L2 21L4 21L4 18L5 18L5 19L7 19L7 20L5 20L5 21L8 21L8 23L9 23L9 25L8 25L8 26L9 26L9 25L10 25L10 23L9 23L9 20L10 20L10 22L11 22L11 26L10 26L10 27L8 27L8 29L9 29L9 28L10 28L10 29L11 29L11 28L12 28L12 29L14 29L14 28L12 28L12 24L14 24L14 25L13 25L13 27L15 27L15 26L14 26L14 25L15 25L15 23L13 23L13 22L14 22L14 21L15 21L15 20L16 20L16 23L17 23L17 22L18 22L18 21L17 21L17 20L18 20L18 18L17 18L17 17L18 17L18 16L19 16L19 17L21 17L21 18L20 18L20 19L19 19L19 20L20 20L20 21L19 21L19 22L20 22L20 25L18 25L18 24L17 24L17 26L16 26L16 28L17 28L17 29L18 29L18 28L19 28L19 27L20 27L20 29L25 29L25 28L22 28L22 27L23 27L23 25L24 25L24 27L27 27L27 29L28 29L28 27L29 27L29 26L28 26L28 25L27 25L27 24L29 24L29 23L28 23L28 21L29 21L29 20L28 20L28 21L27 21L27 20L26 20L26 21L25 21L25 20L23 20L23 18L24 18L24 19L26 19L26 18L27 18L27 19L29 19L29 18L28 18L28 17L25 17L25 18L24 18L24 17L21 17L21 16L20 16L20 15L21 15L21 14L22 14L22 13L23 13L23 11L25 11L25 13L26 13L26 12L27 12L27 15L29 15L29 13L28 13L28 11L27 11L27 10L26 10L26 9L28 9L28 10L29 10L29 9L28 9L28 8L26 8L26 9L25 9L25 8L22 8L22 9L21 9L21 6L20 6L20 5L21 5L21 4L20 4L20 3L19 3L19 2L18 2L18 1L21 1L21 0L18 0L18 1L16 1L16 0L15 0L15 2L14 2L14 1L13 1L13 0L12 0L12 1L11 1L11 2L9 2L9 1L10 1L10 0ZM13 2L13 3L12 3L12 4L9 4L9 5L10 5L10 6L9 6L9 7L10 7L10 8L8 8L8 11L9 11L9 12L8 12L8 13L12 13L12 12L13 12L13 11L15 11L15 12L14 12L14 13L13 13L13 15L14 15L14 16L12 16L12 14L11 14L11 16L10 16L10 18L11 18L11 19L12 19L12 20L14 20L14 19L13 19L13 17L14 17L14 18L15 18L15 19L16 19L16 20L17 20L17 19L16 19L16 17L17 17L17 16L16 16L16 14L17 14L17 15L18 15L18 14L17 14L17 12L18 12L18 13L21 13L21 12L22 12L22 11L23 11L23 10L25 10L25 9L23 9L23 10L21 10L21 12L20 12L20 11L19 11L19 10L20 10L20 6L19 6L19 7L18 7L18 6L17 6L17 5L18 5L18 3L17 3L17 2L16 2L16 4L17 4L17 5L16 5L16 6L15 6L15 5L14 5L14 6L13 6L13 4L14 4L14 2ZM19 4L19 5L20 5L20 4ZM11 5L11 6L10 6L10 7L11 7L11 6L12 6L12 8L13 8L13 10L14 10L14 9L15 9L15 8L16 8L16 11L17 11L17 10L18 10L18 9L17 9L17 8L18 8L18 7L17 7L17 6L16 6L16 7L15 7L15 6L14 6L14 7L15 7L15 8L13 8L13 6L12 6L12 5ZM16 7L16 8L17 8L17 7ZM10 8L10 10L9 10L9 11L11 11L11 10L12 10L12 9L11 9L11 8ZM1 9L1 10L2 10L2 9ZM1 14L1 15L2 15L2 14ZM7 14L7 15L3 15L3 16L8 16L8 17L9 17L9 16L8 16L8 14ZM9 14L9 15L10 15L10 14ZM14 14L14 15L15 15L15 14ZM19 14L19 15L20 15L20 14ZM23 14L23 15L22 15L22 16L24 16L24 14ZM25 15L25 16L26 16L26 15ZM11 16L11 17L12 17L12 16ZM5 17L5 18L7 18L7 17ZM0 18L0 19L1 19L1 18ZM8 18L8 20L9 20L9 18ZM21 18L21 19L20 19L20 20L21 20L21 19L22 19L22 18ZM0 20L0 21L1 21L1 20ZM21 21L21 24L24 24L24 21ZM26 21L26 22L27 22L27 21ZM22 22L22 23L23 23L23 22ZM25 23L25 25L26 25L26 23ZM20 25L20 27L21 27L21 26L22 26L22 25ZM17 26L17 27L18 27L18 26ZM27 26L27 27L28 27L28 26ZM10 27L10 28L11 28L11 27ZM0 0L0 7L7 7L7 0ZM1 1L1 6L6 6L6 1ZM2 2L2 5L5 5L5 2ZM22 0L22 7L29 7L29 0ZM23 1L23 6L28 6L28 1ZM24 2L24 5L27 5L27 2ZM0 22L0 29L7 29L7 22ZM1 23L1 28L6 28L6 23ZM2 24L2 27L5 27L5 24Z" fill="#000000"/></g></g></svg>
