<?xml version="1.0" encoding="UTF-8"?>
<svg xmlns="http://www.w3.org/2000/svg" version="1.1" width="200" height="200" viewBox="0 0 200 200"><rect x="0" y="0" width="200" height="200" fill="#ffffff"/><g transform="scale(6.897)"><g transform="translate(0,0)"><path fill-rule="evenodd" d="M8 0L8 1L11 1L11 3L10 3L10 2L9 2L9 3L10 3L10 5L9 5L9 6L8 6L8 8L9 8L9 9L10 9L10 10L6 10L6 9L7 9L7 8L6 8L6 9L5 9L5 8L3 8L3 9L2 9L2 8L0 8L0 11L1 11L1 12L0 12L0 13L1 13L1 14L2 14L2 15L1 15L1 16L2 16L2 15L3 15L3 13L10 13L10 14L8 14L8 15L7 15L7 14L4 14L4 16L5 16L5 17L4 17L4 18L3 18L3 17L2 17L2 18L1 18L1 17L0 17L0 21L2 21L2 20L3 20L3 21L5 21L5 19L7 19L7 18L8 18L8 17L7 17L7 16L8 16L8 15L10 15L10 16L9 16L9 19L8 19L8 20L9 20L9 21L8 21L8 22L9 22L9 24L8 24L8 26L9 26L9 27L8 27L8 29L11 29L11 28L12 28L12 27L14 27L14 26L15 26L15 27L16 27L16 28L14 28L14 29L16 29L16 28L17 28L17 27L18 27L18 28L19 28L19 29L21 29L21 28L22 28L22 29L24 29L24 28L27 28L27 27L28 27L28 28L29 28L29 24L28 24L28 23L27 23L27 21L28 21L28 20L29 20L29 18L28 18L28 17L27 17L27 18L28 18L28 19L26 19L26 16L29 16L29 12L27 12L27 13L23 13L23 10L24 10L24 12L25 12L25 10L26 10L26 11L27 11L27 10L28 10L28 9L29 9L29 8L28 8L28 9L23 9L23 8L22 8L22 9L20 9L20 8L21 8L21 6L20 6L20 7L19 7L19 5L20 5L20 4L21 4L21 3L20 3L20 1L19 1L19 0L17 0L17 1L16 1L16 2L15 2L15 3L16 3L16 9L15 9L15 10L12 10L12 11L14 11L14 12L13 12L13 13L12 13L12 14L13 14L13 13L14 13L14 15L12 15L12 16L11 16L11 15L10 15L10 14L11 14L11 12L9 12L9 11L10 11L10 10L11 10L11 9L10 9L10 7L11 7L11 6L12 6L12 9L13 9L13 8L15 8L15 4L14 4L14 1L15 1L15 0L13 0L13 1L12 1L12 0ZM17 1L17 3L18 3L18 5L17 5L17 8L18 8L18 9L19 9L19 7L18 7L18 5L19 5L19 4L20 4L20 3L18 3L18 2L19 2L19 1ZM12 2L12 4L13 4L13 2ZM10 5L10 6L9 6L9 7L10 7L10 6L11 6L11 5ZM12 5L12 6L13 6L13 7L14 7L14 5ZM1 9L1 10L2 10L2 9ZM3 9L3 11L4 11L4 12L7 12L7 11L5 11L5 9ZM16 9L16 10L17 10L17 9ZM22 9L22 10L23 10L23 9ZM19 10L19 12L17 12L17 15L16 15L16 16L13 16L13 17L12 17L12 18L11 18L11 16L10 16L10 18L11 18L11 19L10 19L10 23L11 23L11 22L12 22L12 23L13 23L13 22L12 22L12 21L13 21L13 19L12 19L12 18L15 18L15 17L16 17L16 18L17 18L17 17L22 17L22 18L20 18L20 19L19 19L19 18L18 18L18 19L17 19L17 20L18 20L18 21L19 21L19 22L20 22L20 20L23 20L23 19L22 19L22 18L24 18L24 17L25 17L25 16L26 16L26 15L24 15L24 14L23 14L23 15L24 15L24 17L23 17L23 16L22 16L22 15L21 15L21 14L22 14L22 13L19 13L19 12L22 12L22 11L21 11L21 10ZM1 12L1 13L2 13L2 12ZM15 12L15 13L16 13L16 12ZM18 13L18 15L20 15L20 14L19 14L19 13ZM27 14L27 15L28 15L28 14ZM5 15L5 16L7 16L7 15ZM5 17L5 18L4 18L4 19L3 19L3 18L2 18L2 19L3 19L3 20L4 20L4 19L5 19L5 18L7 18L7 17ZM11 19L11 21L12 21L12 19ZM14 19L14 25L15 25L15 20L16 20L16 19ZM18 19L18 20L19 20L19 19ZM24 19L24 20L25 20L25 19ZM6 20L6 21L7 21L7 20ZM16 21L16 22L17 22L17 23L18 23L18 24L16 24L16 25L19 25L19 26L20 26L20 25L19 25L19 23L18 23L18 22L17 22L17 21ZM21 21L21 24L24 24L24 21ZM25 21L25 23L26 23L26 27L27 27L27 26L28 26L28 24L27 24L27 23L26 23L26 21ZM22 22L22 23L23 23L23 22ZM10 24L10 27L9 27L9 28L10 28L10 27L11 27L11 26L13 26L13 25L11 25L11 24ZM22 25L22 28L23 28L23 26L25 26L25 25ZM16 26L16 27L17 27L17 26ZM20 27L20 28L21 28L21 27ZM0 0L0 7L7 7L7 0ZM1 1L1 6L6 6L6 1ZM2 2L2 5L5 5L5 2ZM22 0L22 7L29 7L29 0ZM23 1L23 6L28 6L28 1ZM24 2L24 5L27 5L27 2ZM0 22L0 29L7 29L7 22ZM1 23L1 28L6 28L6 23ZM2 24L2 27L5 27L5 24Z" fill="#000000"/></g></g></svg>
