<?xml version="1.0" encoding="UTF-8"?>
<svg xmlns="http://www.w3.org/2000/svg" version="1.1" width="200" height="200" viewBox="0 0 200 200"><rect x="0" y="0" width="200" height="200" fill="#ffffff"/><g transform="scale(6.897)"><g transform="translate(0,0)"><path fill-rule="evenodd" d="M9 0L9 1L10 1L10 2L8 2L8 3L9 3L9 4L10 4L10 5L9 5L9 6L8 6L8 8L4 8L4 9L3 9L3 8L0 8L0 10L1 10L1 13L0 13L0 14L1 14L1 15L0 15L0 17L2 17L2 19L1 19L1 18L0 18L0 19L1 19L1 20L0 20L0 21L1 21L1 20L3 20L3 21L4 21L4 20L5 20L5 21L7 21L7 20L6 20L6 19L7 19L7 18L6 18L6 17L8 17L8 16L9 16L9 19L10 19L10 17L11 17L11 18L12 18L12 16L14 16L14 18L13 18L13 19L14 19L14 18L15 18L15 14L14 14L14 13L13 13L13 12L12 12L12 11L11 11L11 12L12 12L12 13L11 13L11 15L12 15L12 16L9 16L9 14L10 14L10 13L9 13L9 12L6 12L6 13L4 13L4 14L5 14L5 16L4 16L4 15L3 15L3 14L1 14L1 13L3 13L3 12L4 12L4 11L3 11L3 10L4 10L4 9L5 9L5 10L6 10L6 11L10 11L10 10L12 10L12 8L14 8L14 10L13 10L13 11L14 11L14 10L15 10L15 6L16 6L16 7L17 7L17 11L16 11L16 12L17 12L17 13L16 13L16 14L17 14L17 15L16 15L16 19L17 19L17 21L16 21L16 22L17 22L17 23L15 23L15 22L14 22L14 21L13 21L13 20L12 20L12 19L11 19L11 20L10 20L10 21L11 21L11 22L9 22L9 20L8 20L8 25L9 25L9 26L8 26L8 29L10 29L10 28L12 28L12 29L13 29L13 28L12 28L12 27L11 27L11 26L12 26L12 24L14 24L14 26L13 26L13 27L14 27L14 26L15 26L15 24L16 24L16 26L18 26L18 23L20 23L20 26L19 26L19 27L16 27L16 28L17 28L17 29L21 29L21 27L23 27L23 28L22 28L22 29L23 29L23 28L24 28L24 27L25 27L25 26L26 26L26 27L27 27L27 28L26 28L26 29L29 29L29 28L28 28L28 27L29 27L29 24L28 24L28 23L29 23L29 22L28 22L28 21L29 21L29 18L28 18L28 17L29 17L29 16L28 16L28 17L27 17L27 19L28 19L28 21L27 21L27 26L26 26L26 25L25 25L25 24L26 24L26 23L25 23L25 21L26 21L26 15L29 15L29 14L28 14L28 11L29 11L29 9L27 9L27 8L26 8L26 10L24 10L24 12L25 12L25 13L26 13L26 11L27 11L27 14L26 14L26 15L25 15L25 14L24 14L24 16L25 16L25 18L23 18L23 16L22 16L22 15L20 15L20 16L19 16L19 15L18 15L18 12L21 12L21 13L20 13L20 14L21 14L21 13L22 13L22 14L23 14L23 12L21 12L21 11L23 11L23 8L20 8L20 7L21 7L21 4L20 4L20 3L21 3L21 2L20 2L20 0L19 0L19 2L20 2L20 3L18 3L18 5L17 5L17 3L15 3L15 2L16 2L16 1L17 1L17 0L16 0L16 1L15 1L15 0L12 0L12 1L10 1L10 0ZM13 1L13 2L14 2L14 1ZM11 2L11 3L12 3L12 4L11 4L11 5L10 5L10 6L9 6L9 7L10 7L10 6L11 6L11 8L12 8L12 6L13 6L13 7L14 7L14 6L15 6L15 5L14 5L14 4L13 4L13 3L12 3L12 2ZM13 5L13 6L14 6L14 5ZM17 6L17 7L18 7L18 9L19 9L19 11L20 11L20 8L19 8L19 7L20 7L20 6L19 6L19 7L18 7L18 6ZM9 8L9 10L10 10L10 8ZM1 9L1 10L3 10L3 9ZM6 9L6 10L7 10L7 9ZM21 9L21 10L22 10L22 9ZM27 10L27 11L28 11L28 10ZM2 11L2 12L3 12L3 11ZM6 13L6 14L7 14L7 13ZM8 13L8 14L9 14L9 13ZM13 14L13 15L14 15L14 14ZM1 15L1 16L2 16L2 17L3 17L3 16L2 16L2 15ZM6 15L6 16L7 16L7 15ZM18 16L18 17L17 17L17 19L18 19L18 17L19 17L19 19L20 19L20 20L21 20L21 19L22 19L22 20L23 20L23 19L22 19L22 18L20 18L20 17L19 17L19 16ZM21 16L21 17L22 17L22 16ZM4 17L4 18L3 18L3 19L6 19L6 18L5 18L5 17ZM11 20L11 21L12 21L12 20ZM18 20L18 21L19 21L19 22L20 22L20 21L19 21L19 20ZM21 21L21 24L24 24L24 21ZM13 22L13 23L14 23L14 22ZM22 22L22 23L23 23L23 22ZM10 23L10 24L12 24L12 23ZM21 25L21 26L20 26L20 27L21 27L21 26L23 26L23 25ZM9 26L9 28L10 28L10 26ZM27 26L27 27L28 27L28 26ZM0 0L0 7L7 7L7 0ZM1 1L1 6L6 6L6 1ZM2 2L2 5L5 5L5 2ZM22 0L22 7L29 7L29 0ZM23 1L23 6L28 6L28 1ZM24 2L24 5L27 5L27 2ZM0 22L0 29L7 29L7 22ZM1 23L1 28L6 28L6 23ZM2 24L2 27L5 27L5 24Z" fill="#000000"/></g></g></svg>
