<?xml version="1.0" encoding="UTF-8"?>
<svg xmlns="http://www.w3.org/2000/svg" version="1.1" width="200" height="200" viewBox="0 0 200 200"><rect x="0" y="0" width="200" height="200" fill="#ffffff"/><g transform="scale(8)"><g transform="translate(0,0)"><path fill-rule="evenodd" d="M9 0L9 1L8 1L8 2L9 2L9 3L8 3L8 4L9 4L9 5L8 5L8 7L9 7L9 8L6 8L6 9L5 9L5 8L0 8L0 9L1 9L1 11L0 11L0 12L1 12L1 13L0 13L0 17L1 17L1 13L2 13L2 12L3 12L3 13L4 13L4 15L5 15L5 13L8 13L8 14L6 14L6 15L7 15L7 16L2 16L2 17L7 17L7 16L8 16L8 19L9 19L9 20L8 20L8 25L10 25L10 23L9 23L9 22L12 22L12 21L16 21L16 22L13 22L13 23L11 23L11 24L13 24L13 25L15 25L15 24L17 24L17 25L20 25L20 24L17 24L17 23L16 23L16 22L19 22L19 21L20 21L20 22L21 22L21 20L22 20L22 21L23 21L23 20L22 20L22 19L21 19L21 18L23 18L23 19L24 19L24 21L25 21L25 16L24 16L24 15L25 15L25 9L24 9L24 8L23 8L23 9L22 9L22 8L21 8L21 9L22 9L22 10L20 10L20 8L19 8L19 11L17 11L17 13L15 13L15 12L16 12L16 10L17 10L17 9L18 9L18 8L17 8L17 4L16 4L16 5L15 5L15 6L14 6L14 8L13 8L13 6L12 6L12 7L11 7L11 6L10 6L10 7L9 7L9 5L12 5L12 4L15 4L15 3L12 3L12 4L11 4L11 3L10 3L10 2L9 2L9 1L12 1L12 0ZM16 0L16 1L14 1L14 2L16 2L16 3L17 3L17 2L16 2L16 1L17 1L17 0ZM9 3L9 4L10 4L10 3ZM15 6L15 8L14 8L14 9L13 9L13 8L11 8L11 9L10 9L10 8L9 8L9 9L8 9L8 11L6 11L6 10L7 10L7 9L6 9L6 10L5 10L5 9L4 9L4 10L2 10L2 11L3 11L3 12L4 12L4 13L5 13L5 12L8 12L8 11L10 11L10 13L9 13L9 14L8 14L8 16L9 16L9 19L10 19L10 18L11 18L11 21L12 21L12 20L14 20L14 19L16 19L16 18L14 18L14 17L13 17L13 16L15 16L15 15L14 15L14 14L15 14L15 13L13 13L13 12L15 12L15 10L16 10L16 9L17 9L17 8L16 8L16 6ZM9 9L9 10L10 10L10 11L11 11L11 10L12 10L12 11L13 11L13 10L12 10L12 9L11 9L11 10L10 10L10 9ZM23 9L23 10L22 10L22 12L23 12L23 14L22 14L22 13L21 13L21 11L19 11L19 13L18 13L18 14L19 14L19 15L17 15L17 14L16 14L16 16L21 16L21 17L22 17L22 16L23 16L23 18L24 18L24 16L23 16L23 14L24 14L24 12L23 12L23 10L24 10L24 9ZM4 10L4 11L5 11L5 10ZM11 13L11 14L10 14L10 15L11 15L11 16L10 16L10 17L11 17L11 18L13 18L13 19L14 19L14 18L13 18L13 17L11 17L11 16L12 16L12 15L13 15L13 13ZM19 13L19 14L20 14L20 13ZM2 14L2 15L3 15L3 14ZM11 14L11 15L12 15L12 14ZM21 15L21 16L22 16L22 15ZM17 17L17 20L20 20L20 17ZM18 18L18 19L19 19L19 18ZM9 20L9 21L10 21L10 20ZM24 22L24 24L22 24L22 23L21 23L21 24L22 24L22 25L25 25L25 22ZM13 23L13 24L14 24L14 23ZM0 0L0 7L7 7L7 0ZM1 1L1 6L6 6L6 1ZM2 2L2 5L5 5L5 2ZM18 0L18 7L25 7L25 0ZM19 1L19 6L24 6L24 1ZM20 2L20 5L23 5L23 2ZM0 18L0 25L7 25L7 18ZM1 19L1 24L6 24L6 19ZM2 20L2 23L5 23L5 20Z" fill="#000000"/></g></g></svg>
