<?xml version="1.0" encoding="UTF-8"?>
<svg xmlns="http://www.w3.org/2000/svg" version="1.1" width="200" height="200" viewBox="0 0 200 200"><rect x="0" y="0" width="200" height="200" fill="#ffffff"/><g transform="scale(6.897)"><g transform="translate(0,0)"><path fill-rule="evenodd" d="M8 0L8 4L10 4L10 3L11 3L11 4L12 4L12 2L11 2L11 0ZM12 0L12 1L13 1L13 2L14 2L14 0ZM15 0L15 1L16 1L16 2L17 2L17 3L18 3L18 5L19 5L19 6L18 6L18 7L17 7L17 4L16 4L16 3L15 3L15 5L14 5L14 3L13 3L13 5L11 5L11 6L10 6L10 7L9 7L9 5L8 5L8 7L9 7L9 8L10 8L10 7L11 7L11 6L12 6L12 8L11 8L11 9L7 9L7 8L4 8L4 9L2 9L2 8L0 8L0 9L2 9L2 10L3 10L3 11L4 11L4 10L5 10L5 11L7 11L7 12L6 12L6 13L7 13L7 14L5 14L5 12L4 12L4 14L5 14L5 15L3 15L3 12L2 12L2 11L1 11L1 13L2 13L2 16L3 16L3 17L2 17L2 20L0 20L0 21L7 21L7 20L5 20L5 19L7 19L7 18L6 18L6 17L8 17L8 20L9 20L9 21L8 21L8 22L9 22L9 21L10 21L10 23L8 23L8 25L9 25L9 26L10 26L10 28L9 28L9 27L8 27L8 29L11 29L11 28L12 28L12 29L14 29L14 27L16 27L16 29L18 29L18 27L21 27L21 26L22 26L22 28L24 28L24 27L23 27L23 26L22 26L22 25L24 25L24 26L27 26L27 28L26 28L26 27L25 27L25 29L28 29L28 28L29 28L29 25L28 25L28 23L29 23L29 22L28 22L28 21L26 21L26 22L25 22L25 19L27 19L27 18L28 18L28 19L29 19L29 18L28 18L28 16L29 16L29 14L28 14L28 13L29 13L29 8L25 8L25 9L24 9L24 8L23 8L23 10L22 10L22 9L21 9L21 8L19 8L19 9L18 9L18 7L19 7L19 6L20 6L20 7L21 7L21 6L20 6L20 5L21 5L21 4L20 4L20 5L19 5L19 2L21 2L21 1L16 1L16 0ZM9 2L9 3L10 3L10 2ZM13 5L13 8L12 8L12 9L11 9L11 10L8 10L8 11L9 11L9 12L7 12L7 13L9 13L9 14L11 14L11 15L9 15L9 16L8 16L8 15L6 15L6 16L8 16L8 17L9 17L9 18L10 18L10 20L11 20L11 23L10 23L10 26L12 26L12 25L13 25L13 26L15 26L15 25L17 25L17 26L16 26L16 27L17 27L17 26L21 26L21 25L19 25L19 23L20 23L20 20L21 20L21 19L20 19L20 18L22 18L22 17L24 17L24 15L25 15L25 17L27 17L27 15L28 15L28 14L26 14L26 13L28 13L28 11L27 11L27 10L28 10L28 9L25 9L25 10L24 10L24 11L23 11L23 12L22 12L22 10L21 10L21 9L20 9L20 10L19 10L19 11L18 11L18 9L16 9L16 8L17 8L17 7L16 7L16 5L15 5L15 7L16 7L16 8L15 8L15 9L16 9L16 10L17 10L17 11L16 11L16 12L15 12L15 11L14 11L14 13L17 13L17 14L16 14L16 15L15 15L15 14L13 14L13 13L12 13L12 12L13 12L13 11L12 11L12 12L11 12L11 13L10 13L10 11L11 11L11 10L12 10L12 9L13 9L13 10L14 10L14 9L13 9L13 8L14 8L14 5ZM6 9L6 10L7 10L7 9ZM25 10L25 11L24 11L24 13L23 13L23 15L22 15L22 12L21 12L21 11L20 11L20 12L19 12L19 14L20 14L20 15L16 15L16 17L15 17L15 15L14 15L14 16L13 16L13 15L12 15L12 16L10 16L10 17L12 17L12 18L11 18L11 20L12 20L12 21L13 21L13 22L15 22L15 23L14 23L14 24L13 24L13 23L12 23L12 24L11 24L11 25L12 25L12 24L13 24L13 25L15 25L15 24L16 24L16 23L17 23L17 25L18 25L18 23L17 23L17 21L18 21L18 19L19 19L19 18L20 18L20 17L21 17L21 16L23 16L23 15L24 15L24 14L25 14L25 11L26 11L26 10ZM17 11L17 13L18 13L18 11ZM20 12L20 14L21 14L21 12ZM0 15L0 16L1 16L1 15ZM4 16L4 18L5 18L5 16ZM12 16L12 17L13 17L13 18L15 18L15 17L13 17L13 16ZM18 16L18 17L17 17L17 18L18 18L18 17L20 17L20 16ZM0 17L0 18L1 18L1 17ZM23 18L23 19L25 19L25 18ZM12 19L12 20L13 20L13 19ZM14 19L14 21L16 21L16 20L17 20L17 19L16 19L16 20L15 20L15 19ZM21 21L21 24L24 24L24 21ZM22 22L22 23L23 23L23 22ZM26 22L26 23L25 23L25 24L26 24L26 25L27 25L27 26L28 26L28 25L27 25L27 23L28 23L28 22ZM12 27L12 28L13 28L13 27ZM20 28L20 29L21 29L21 28ZM0 0L0 7L7 7L7 0ZM1 1L1 6L6 6L6 1ZM2 2L2 5L5 5L5 2ZM22 0L22 7L29 7L29 0ZM23 1L23 6L28 6L28 1ZM24 2L24 5L27 5L27 2ZM0 22L0 29L7 29L7 22ZM1 23L1 28L6 28L6 23ZM2 24L2 27L5 27L5 24Z" fill="#000000"/></g></g></svg>
