<?xml version="1.0" encoding="UTF-8"?>
<svg xmlns="http://www.w3.org/2000/svg" version="1.1" width="200" height="200" viewBox="0 0 200 200"><rect x="0" y="0" width="200" height="200" fill="#ffffff"/><g transform="scale(6.897)"><g transform="translate(0,0)"><path fill-rule="evenodd" d="M8 0L8 1L10 1L10 0ZM15 0L15 1L14 1L14 2L11 2L11 4L10 4L10 3L9 3L9 2L8 2L8 5L9 5L9 6L8 6L8 7L9 7L9 8L8 8L8 10L6 10L6 11L5 11L5 9L4 9L4 8L0 8L0 15L2 15L2 14L1 14L1 12L2 12L2 13L3 13L3 14L4 14L4 15L3 15L3 17L2 17L2 16L0 16L0 17L1 17L1 18L0 18L0 19L1 19L1 18L2 18L2 19L9 19L9 21L8 21L8 22L10 22L10 23L9 23L9 25L8 25L8 29L9 29L9 27L10 27L10 29L11 29L11 28L12 28L12 29L13 29L13 28L12 28L12 26L13 26L13 27L14 27L14 29L15 29L15 27L14 27L14 26L17 26L17 27L18 27L18 29L24 29L24 26L25 26L25 28L26 28L26 29L28 29L28 27L29 27L29 25L28 25L28 21L29 21L29 19L27 19L27 18L26 18L26 16L25 16L25 15L26 15L26 14L27 14L27 15L29 15L29 14L27 14L27 12L26 12L26 11L27 11L27 10L29 10L29 8L28 8L28 9L27 9L27 8L24 8L24 9L22 9L22 8L21 8L21 9L20 9L20 8L19 8L19 6L20 6L20 7L21 7L21 6L20 6L20 4L18 4L18 3L19 3L19 1L21 1L21 0L18 0L18 1L17 1L17 0ZM16 1L16 3L12 3L12 5L10 5L10 6L9 6L9 7L10 7L10 8L9 8L9 9L10 9L10 10L9 10L9 12L8 12L8 11L6 11L6 12L8 12L8 13L6 13L6 14L5 14L5 13L4 13L4 14L5 14L5 15L6 15L6 16L5 16L5 18L7 18L7 17L8 17L8 16L9 16L9 18L10 18L10 16L12 16L12 17L11 17L11 18L12 18L12 17L14 17L14 18L13 18L13 20L14 20L14 21L15 21L15 22L14 22L14 23L10 23L10 27L11 27L11 25L12 25L12 24L13 24L13 26L14 26L14 24L15 24L15 23L16 23L16 25L17 25L17 24L18 24L18 26L19 26L19 28L20 28L20 26L21 26L21 28L22 28L22 27L23 27L23 25L22 25L22 26L21 26L21 25L20 25L20 23L19 23L19 24L18 24L18 23L17 23L17 22L18 22L18 21L17 21L17 19L16 19L16 20L15 20L15 17L16 17L16 18L18 18L18 16L19 16L19 20L23 20L23 19L21 19L21 18L22 18L22 17L24 17L24 18L25 18L25 17L24 17L24 16L23 16L23 15L24 15L24 14L25 14L25 12L24 12L24 11L25 11L25 10L21 10L21 11L20 11L20 10L19 10L19 8L18 8L18 9L17 9L17 7L18 7L18 6L19 6L19 5L18 5L18 6L17 6L17 7L16 7L16 5L17 5L17 3L18 3L18 2L17 2L17 1ZM20 2L20 3L21 3L21 2ZM13 4L13 5L12 5L12 7L11 7L11 6L10 6L10 7L11 7L11 8L12 8L12 7L13 7L13 9L15 9L15 8L16 8L16 7L15 7L15 5L14 5L14 4ZM13 5L13 7L14 7L14 5ZM6 8L6 9L7 9L7 8ZM1 9L1 10L2 10L2 11L3 11L3 12L4 12L4 10L2 10L2 9ZM16 9L16 11L15 11L15 10L14 10L14 11L11 11L11 13L10 13L10 12L9 12L9 13L8 13L8 15L7 15L7 14L6 14L6 15L7 15L7 16L6 16L6 17L7 17L7 16L8 16L8 15L9 15L9 16L10 16L10 14L12 14L12 16L14 16L14 15L15 15L15 16L16 16L16 17L17 17L17 16L16 16L16 15L15 15L15 14L16 14L16 13L17 13L17 14L18 14L18 15L21 15L21 16L20 16L20 18L21 18L21 17L22 17L22 15L23 15L23 13L22 13L22 11L21 11L21 13L19 13L19 12L20 12L20 11L19 11L19 10L17 10L17 9ZM17 11L17 12L19 12L19 11ZM28 11L28 13L29 13L29 11ZM12 12L12 14L13 14L13 15L14 15L14 14L15 14L15 12ZM9 13L9 14L10 14L10 13ZM13 13L13 14L14 14L14 13ZM21 13L21 15L22 15L22 13ZM28 17L28 18L29 18L29 17ZM10 19L10 21L11 21L11 22L12 22L12 21L11 21L11 20L12 20L12 19ZM25 19L25 22L27 22L27 21L28 21L28 20L27 20L27 21L26 21L26 19ZM1 20L1 21L3 21L3 20ZM4 20L4 21L7 21L7 20ZM19 21L19 22L20 22L20 21ZM21 21L21 24L24 24L24 21ZM22 22L22 23L23 23L23 22ZM26 23L26 24L25 24L25 26L26 26L26 28L27 28L27 27L28 27L28 25L27 25L27 26L26 26L26 24L27 24L27 23ZM16 28L16 29L17 29L17 28ZM0 0L0 7L7 7L7 0ZM1 1L1 6L6 6L6 1ZM2 2L2 5L5 5L5 2ZM22 0L22 7L29 7L29 0ZM23 1L23 6L28 6L28 1ZM24 2L24 5L27 5L27 2ZM0 22L0 29L7 29L7 22ZM1 23L1 28L6 28L6 23ZM2 24L2 27L5 27L5 24Z" fill="#000000"/></g></g></svg>
