<?xml version="1.0" encoding="UTF-8"?>
<svg xmlns="http://www.w3.org/2000/svg" version="1.1" width="200" height="200" viewBox="0 0 200 200"><rect x="0" y="0" width="200" height="200" fill="#ffffff"/><g transform="scale(6.897)"><g transform="translate(0,0)"><path fill-rule="evenodd" d="M8 0L8 1L11 1L11 3L10 3L10 2L9 2L9 3L10 3L10 5L9 5L9 6L8 6L8 8L9 8L9 9L7 9L7 8L6 8L6 9L7 9L7 10L6 10L6 11L5 11L5 10L4 10L4 9L5 9L5 8L3 8L3 10L2 10L2 8L0 8L0 11L1 11L1 12L3 12L3 13L0 13L0 14L2 14L2 15L3 15L3 16L1 16L1 15L0 15L0 16L1 16L1 17L0 17L0 21L2 21L2 17L3 17L3 21L4 21L4 19L5 19L5 18L6 18L6 19L7 19L7 18L6 18L6 17L8 17L8 18L9 18L9 19L8 19L8 20L5 20L5 21L8 21L8 22L9 22L9 21L10 21L10 22L11 22L11 23L9 23L9 24L8 24L8 26L9 26L9 27L8 27L8 29L9 29L9 28L10 28L10 29L11 29L11 28L12 28L12 27L14 27L14 26L15 26L15 28L14 28L14 29L16 29L16 26L17 26L17 27L18 27L18 28L19 28L19 29L22 29L22 28L23 28L23 29L24 29L24 28L26 28L26 29L27 29L27 27L28 27L28 28L29 28L29 23L27 23L27 21L28 21L28 22L29 22L29 17L28 17L28 16L29 16L29 14L28 14L28 15L27 15L27 13L24 13L24 12L23 12L23 11L28 11L28 12L29 12L29 11L28 11L28 10L26 10L26 9L23 9L23 8L22 8L22 9L21 9L21 10L20 10L20 8L21 8L21 3L20 3L20 2L21 2L21 0L20 0L20 1L19 1L19 3L17 3L17 1L18 1L18 0L17 0L17 1L16 1L16 3L17 3L17 4L16 4L16 5L18 5L18 7L19 7L19 8L17 8L17 6L16 6L16 8L15 8L15 3L14 3L14 1L15 1L15 0L13 0L13 1L12 1L12 0ZM12 2L12 4L14 4L14 3L13 3L13 2ZM19 3L19 4L18 4L18 5L19 5L19 7L20 7L20 5L19 5L19 4L20 4L20 3ZM10 5L10 6L9 6L9 7L10 7L10 9L9 9L9 10L8 10L8 11L6 11L6 12L4 12L4 17L5 17L5 16L7 16L7 15L8 15L8 16L9 16L9 18L11 18L11 19L9 19L9 20L8 20L8 21L9 21L9 20L10 20L10 21L11 21L11 22L12 22L12 23L13 23L13 22L12 22L12 21L13 21L13 19L12 19L12 18L15 18L15 16L13 16L13 17L12 17L12 18L11 18L11 16L12 16L12 15L14 15L14 14L15 14L15 13L16 13L16 12L17 12L17 14L18 14L18 15L16 15L16 16L17 16L17 17L18 17L18 19L17 19L17 18L16 18L16 19L14 19L14 25L15 25L15 20L16 20L16 19L17 19L17 20L18 20L18 21L16 21L16 22L18 22L18 24L16 24L16 25L17 25L17 26L18 26L18 27L19 27L19 28L21 28L21 27L22 27L22 26L25 26L25 25L22 25L22 26L21 26L21 25L19 25L19 22L18 22L18 21L20 21L20 20L18 20L18 19L19 19L19 16L18 16L18 15L19 15L19 14L21 14L21 13L22 13L22 12L20 12L20 10L19 10L19 9L16 9L16 12L15 12L15 13L13 13L13 12L14 12L14 9L12 9L12 6L13 6L13 8L14 8L14 6L13 6L13 5L12 5L12 6L11 6L11 5ZM10 6L10 7L11 7L11 6ZM28 8L28 9L29 9L29 8ZM10 9L10 10L9 10L9 11L10 11L10 10L11 10L11 9ZM22 9L22 10L21 10L21 11L23 11L23 9ZM3 10L3 11L4 11L4 10ZM12 10L12 11L13 11L13 10ZM17 10L17 12L18 12L18 13L20 13L20 12L19 12L19 11L18 11L18 10ZM6 12L6 13L5 13L5 15L7 15L7 14L6 14L6 13L8 13L8 15L9 15L9 16L11 16L11 15L10 15L10 14L11 14L11 12ZM9 13L9 14L10 14L10 13ZM12 13L12 14L13 14L13 13ZM22 14L22 15L20 15L20 16L22 16L22 17L21 17L21 18L20 18L20 19L21 19L21 20L25 20L25 21L26 21L26 20L25 20L25 19L24 19L24 17L25 17L25 18L26 18L26 19L28 19L28 17L27 17L27 16L26 16L26 14L25 14L25 15L24 15L24 14ZM22 15L22 16L23 16L23 17L24 17L24 15ZM25 16L25 17L26 17L26 16ZM21 18L21 19L23 19L23 18ZM11 19L11 21L12 21L12 19ZM21 21L21 24L24 24L24 21ZM22 22L22 23L23 23L23 22ZM25 23L25 24L26 24L26 25L27 25L27 26L26 26L26 27L27 27L27 26L28 26L28 24L27 24L27 23ZM10 24L10 25L9 25L9 26L13 26L13 25L11 25L11 24ZM18 25L18 26L19 26L19 25ZM20 26L20 27L21 27L21 26ZM10 27L10 28L11 28L11 27ZM23 27L23 28L24 28L24 27ZM0 0L0 7L7 7L7 0ZM1 1L1 6L6 6L6 1ZM2 2L2 5L5 5L5 2ZM22 0L22 7L29 7L29 0ZM23 1L23 6L28 6L28 1ZM24 2L24 5L27 5L27 2ZM0 22L0 29L7 29L7 22ZM1 23L1 28L6 28L6 23ZM2 24L2 27L5 27L5 24Z" fill="#000000"/></g></g></svg>
