<?xml version="1.0" encoding="UTF-8"?>
<svg xmlns="http://www.w3.org/2000/svg" version="1.1" width="200" height="200" viewBox="0 0 200 200"><rect x="0" y="0" width="200" height="200" fill="#ffffff"/><g transform="scale(6.897)"><g transform="translate(0,0)"><path fill-rule="evenodd" d="M9 0L9 1L8 1L8 2L9 2L9 3L8 3L8 4L10 4L10 7L11 7L11 4L12 4L12 5L13 5L13 6L12 6L12 9L13 9L13 8L14 8L14 9L16 9L16 10L15 10L15 11L14 11L14 12L15 12L15 13L12 13L12 11L13 11L13 10L11 10L11 11L10 11L10 9L11 9L11 8L6 8L6 9L5 9L5 8L0 8L0 10L2 10L2 9L3 9L3 11L2 11L2 12L3 12L3 11L4 11L4 12L5 12L5 11L4 11L4 10L6 10L6 11L7 11L7 12L6 12L6 13L5 13L5 15L4 15L4 14L3 14L3 13L0 13L0 14L3 14L3 15L4 15L4 16L2 16L2 15L1 15L1 16L0 16L0 21L1 21L1 18L2 18L2 19L3 19L3 21L4 21L4 20L5 20L5 19L8 19L8 20L9 20L9 19L10 19L10 20L11 20L11 21L8 21L8 23L10 23L10 25L11 25L11 21L12 21L12 22L13 22L13 23L12 23L12 25L13 25L13 24L14 24L14 25L16 25L16 26L15 26L15 27L14 27L14 28L15 28L15 29L18 29L18 28L15 28L15 27L18 27L18 26L19 26L19 27L20 27L20 28L19 28L19 29L20 29L20 28L21 28L21 29L23 29L23 28L26 28L26 29L27 29L27 28L28 28L28 26L29 26L29 25L27 25L27 26L24 26L24 25L25 25L25 24L26 24L26 23L25 23L25 19L23 19L23 18L26 18L26 19L27 19L27 18L28 18L28 16L25 16L25 17L21 17L21 18L20 18L20 17L19 17L19 18L17 18L17 17L18 17L18 16L17 16L17 13L18 13L18 14L21 14L21 16L22 16L22 15L25 15L25 13L27 13L27 14L28 14L28 13L29 13L29 12L28 12L28 10L29 10L29 9L28 9L28 8L27 8L27 9L28 9L28 10L27 10L27 12L25 12L25 11L24 11L24 10L25 10L25 9L26 9L26 8L25 8L25 9L24 9L24 8L23 8L23 9L22 9L22 8L20 8L20 7L21 7L21 4L19 4L19 2L18 2L18 1L17 1L17 0L16 0L16 1L11 1L11 2L10 2L10 0ZM19 0L19 1L20 1L20 3L21 3L21 1L20 1L20 0ZM16 1L16 2L15 2L15 3L14 3L14 2L12 2L12 4L14 4L14 5L16 5L16 4L17 4L17 7L16 7L16 6L15 6L15 7L14 7L14 6L13 6L13 7L14 7L14 8L18 8L18 9L17 9L17 10L16 10L16 11L17 11L17 12L16 12L16 13L15 13L15 14L16 14L16 13L17 13L17 12L18 12L18 13L22 13L22 14L23 14L23 13L25 13L25 12L24 12L24 11L23 11L23 10L24 10L24 9L23 9L23 10L22 10L22 12L19 12L19 11L20 11L20 10L19 10L19 9L20 9L20 8L19 8L19 7L20 7L20 5L19 5L19 4L17 4L17 3L18 3L18 2L17 2L17 1ZM16 2L16 3L15 3L15 4L16 4L16 3L17 3L17 2ZM10 3L10 4L11 4L11 3ZM8 5L8 7L9 7L9 5ZM18 6L18 7L19 7L19 6ZM6 9L6 10L7 10L7 9ZM17 10L17 11L18 11L18 10ZM8 11L8 12L9 12L9 11ZM10 12L10 13L11 13L11 16L10 16L10 15L8 15L8 18L10 18L10 17L11 17L11 18L13 18L13 19L12 19L12 21L15 21L15 22L16 22L16 23L17 23L17 24L16 24L16 25L17 25L17 26L18 26L18 25L19 25L19 26L20 26L20 27L21 27L21 28L22 28L22 27L21 27L21 26L23 26L23 25L20 25L20 24L19 24L19 23L17 23L17 22L20 22L20 20L22 20L22 18L21 18L21 19L20 19L20 18L19 18L19 20L18 20L18 19L17 19L17 18L16 18L16 17L17 17L17 16L16 16L16 15L14 15L14 16L13 16L13 17L12 17L12 15L13 15L13 14L12 14L12 13L11 13L11 12ZM27 12L27 13L28 13L28 12ZM6 13L6 14L8 14L8 13ZM6 15L6 16L7 16L7 15ZM14 16L14 17L16 17L16 16ZM2 17L2 18L3 18L3 17ZM4 17L4 18L5 18L5 17ZM6 17L6 18L7 18L7 17ZM26 17L26 18L27 18L27 17ZM15 18L15 19L14 19L14 20L15 20L15 21L16 21L16 22L17 22L17 21L18 21L18 20L17 20L17 19L16 19L16 18ZM15 19L15 20L16 20L16 21L17 21L17 20L16 20L16 19ZM28 19L28 20L26 20L26 21L27 21L27 22L28 22L28 20L29 20L29 19ZM6 20L6 21L7 21L7 20ZM21 21L21 24L24 24L24 21ZM22 22L22 23L23 23L23 22ZM14 23L14 24L15 24L15 23ZM8 24L8 29L9 29L9 28L10 28L10 29L12 29L12 27L13 27L13 26L9 26L9 24ZM17 24L17 25L18 25L18 24ZM26 27L26 28L27 28L27 27ZM0 0L0 7L7 7L7 0ZM1 1L1 6L6 6L6 1ZM2 2L2 5L5 5L5 2ZM22 0L22 7L29 7L29 0ZM23 1L23 6L28 6L28 1ZM24 2L24 5L27 5L27 2ZM0 22L0 29L7 29L7 22ZM1 23L1 28L6 28L6 23ZM2 24L2 27L5 27L5 24Z" fill="#000000"/></g></g></svg>
