<?xml version="1.0" encoding="UTF-8"?>
<svg xmlns="http://www.w3.org/2000/svg" version="1.1" width="200" height="200" viewBox="0 0 200 200"><rect x="0" y="0" width="200" height="200" fill="#ffffff"/><g transform="scale(8)"><g transform="translate(0,0)"><path fill-rule="evenodd" d="M9 0L9 1L8 1L8 3L9 3L9 4L8 4L8 8L6 8L6 9L8 9L8 10L5 10L5 9L4 9L4 8L3 8L3 9L4 9L4 10L0 10L0 13L1 13L1 14L0 14L0 15L1 15L1 16L0 16L0 17L2 17L2 16L3 16L3 15L4 15L4 13L3 13L3 14L2 14L2 12L3 12L3 11L4 11L4 12L6 12L6 13L5 13L5 14L6 14L6 15L7 15L7 16L6 16L6 17L8 17L8 19L9 19L9 20L10 20L10 19L11 19L11 17L14 17L14 14L16 14L16 13L18 13L18 14L17 14L17 15L15 15L15 16L16 16L16 17L15 17L15 18L14 18L14 20L13 20L13 21L12 21L12 20L11 20L11 21L10 21L10 22L9 22L9 21L8 21L8 22L9 22L9 23L8 23L8 25L10 25L10 24L11 24L11 25L12 25L12 24L11 24L11 23L12 23L12 22L13 22L13 25L15 25L15 24L14 24L14 20L16 20L16 21L15 21L15 23L19 23L19 22L20 22L20 23L21 23L21 24L23 24L23 23L21 23L21 22L23 22L23 21L25 21L25 18L22 18L22 17L21 17L21 16L20 16L20 14L21 14L21 15L22 15L22 16L23 16L23 17L25 17L25 15L24 15L24 14L25 14L25 11L23 11L23 9L24 9L24 10L25 10L25 9L24 9L24 8L22 8L22 11L21 11L21 12L24 12L24 13L22 13L22 14L21 14L21 13L18 13L18 12L19 12L19 11L18 11L18 10L20 10L20 9L21 9L21 8L18 8L18 10L17 10L17 9L16 9L16 10L14 10L14 7L15 7L15 5L17 5L17 3L15 3L15 2L14 2L14 3L15 3L15 5L13 5L13 6L12 6L12 5L11 5L11 6L10 6L10 5L9 5L9 4L12 4L12 3L13 3L13 1L14 1L14 0L12 0L12 1L11 1L11 2L9 2L9 1L10 1L10 0ZM15 0L15 1L16 1L16 2L17 2L17 1L16 1L16 0ZM9 6L9 7L10 7L10 8L8 8L8 9L9 9L9 10L8 10L8 12L7 12L7 11L6 11L6 12L7 12L7 13L6 13L6 14L7 14L7 15L8 15L8 12L9 12L9 13L12 13L12 12L13 12L13 8L12 8L12 6L11 6L11 7L10 7L10 6ZM13 6L13 7L14 7L14 6ZM16 6L16 8L17 8L17 6ZM0 8L0 9L2 9L2 8ZM10 8L10 10L9 10L9 11L11 11L11 10L12 10L12 9L11 9L11 8ZM4 10L4 11L5 11L5 10ZM16 10L16 12L18 12L18 11L17 11L17 10ZM1 11L1 12L2 12L2 11ZM14 11L14 13L15 13L15 11ZM1 14L1 15L2 15L2 14ZM10 14L10 17L11 17L11 16L12 16L12 14ZM18 14L18 16L19 16L19 14ZM22 14L22 15L23 15L23 16L24 16L24 15L23 15L23 14ZM4 16L4 17L5 17L5 16ZM8 16L8 17L9 17L9 16ZM17 17L17 20L20 20L20 17ZM12 18L12 19L13 19L13 18ZM18 18L18 19L19 19L19 18ZM21 19L21 20L22 20L22 21L23 21L23 20L22 20L22 19ZM11 21L11 22L10 22L10 23L11 23L11 22L12 22L12 21ZM16 21L16 22L18 22L18 21ZM24 22L24 25L25 25L25 22ZM16 24L16 25L18 25L18 24ZM0 0L0 7L7 7L7 0ZM1 1L1 6L6 6L6 1ZM2 2L2 5L5 5L5 2ZM18 0L18 7L25 7L25 0ZM19 1L19 6L24 6L24 1ZM20 2L20 5L23 5L23 2ZM0 18L0 25L7 25L7 18ZM1 19L1 24L6 24L6 19ZM2 20L2 23L5 23L5 20Z" fill="#000000"/></g></g></svg>
