<?xml version="1.0" standalone="no"?>
<!DOCTYPE svg PUBLIC "-//W3C//DTD SVG 20010904//EN"
 "http://www.w3.org/TR/2001/REC-SVG-20010904/DTD/svg10.dtd">
<svg version="1.0" xmlns="http://www.w3.org/2000/svg"
 width="482.000000pt" height="224.000000pt" viewBox="0 0 316 316"
 preserveAspectRatio="xMidYMid meet">

<g transform="translate(0.000000,224.000000) scale(0.100000,-0.100000)"
fill="#000000" stroke="none">
<path d="M170 1135 l0 -25 290 0 290 0 0 25 0 25 -290 0 -290 0 0 -25z"/>
<path d="M790 995 l0 -165 235 0 235 0 0 25 0 25 -210 0 -210 0 0 140 0 140
-25 0 -25 0 0 -165z"/>
<path d="M1300 1135 l0 -25 290 0 290 0 0 25 0 25 -290 0 -290 0 0 -25z"/>
<path d="M1940 1135 l0 -25 330 0 330 0 0 -140 0 -140 25 0 25 0 0 140 0 140
135 0 135 0 0 25 0 25 -490 0 -490 0 0 -25z"/>
<path d="M2950 995 l0 -165 235 0 235 0 0 25 0 25 -210 0 -210 0 0 140 0 140
-25 0 -25 0 0 -165z"/>
<path d="M3460 995 l0 -165 25 0 25 0 0 165 0 165 -25 0 -25 0 0 -165z"/>
<path d="M4098 1037 l-3 -124 -245 115 c-135 62 -253 116 -262 119 -17 5 -18
-7 -18 -156 l0 -161 25 0 24 0 3 125 3 124 255 -119 c140 -66 258 -120 263
-120 4 0 7 72 7 160 l0 160 -25 0 -24 0 -3 -123z"/>
<path d="M4210 1000 c0 -88 2 -160 5 -160 3 0 114 72 248 160 l242 160 -45 0
c-41 0 -61 -10 -217 -115 -95 -63 -175 -115 -178 -115 -3 0 -5 52 -5 115 l0
115 -25 0 -25 0 0 -160z"/>
<path d="M170 925 c0 -95 0 -95 25 -95 24 0 25 2 25 70 l0 70 250 0 250 0 0
25 0 25 -275 0 -275 0 0 -95z"/>
<path d="M1300 995 l0 -25 275 0 275 0 0 25 0 25 -275 0 -275 0 0 -25z"/>
<path d="M1940 995 l0 -25 235 0 235 0 0 25 0 25 -235 0 -235 0 0 -25z"/>
<path d="M4502 977 c-9 -10 7 -29 68 -81 70 -59 84 -67 115 -64 l34 3 -91 78
c-50 42 -97 77 -103 77 -7 0 -17 -6 -23 -13z"/>
<path d="M1300 855 l0 -25 290 0 290 0 0 25 0 25 -290 0 -290 0 0 -25z"/>
<path d="M1940 855 l0 -25 250 0 250 0 0 25 0 25 -250 0 -250 0 0 -25z"/>
</g>
</svg>
